<?xml version="1.0" encoding="UTF-8" standalone="no"?>
<!-- Created with Inkscape (http://www.inkscape.org/) -->

<svg
   xmlns:dc="http://purl.org/dc/elements/1.1/"
   xmlns:cc="http://creativecommons.org/ns#"
   xmlns:rdf="http://www.w3.org/1999/02/22-rdf-syntax-ns#"
   xmlns:svg="http://www.w3.org/2000/svg"
   xmlns="http://www.w3.org/2000/svg"
   xmlns:xlink="http://www.w3.org/1999/xlink"
   xmlns:sodipodi="http://sodipodi.sourceforge.net/DTD/sodipodi-0.dtd"
   xmlns:inkscape="http://www.inkscape.org/namespaces/inkscape"
   width="210mm"
   height="297mm"
   viewBox="0 0 210 297"
   version="1.1"
   id="svg8"
   sodipodi:docname="banner.svg"
   inkscape:version="0.92.3 (2405546, 2018-03-11)">
  <defs
     id="defs2">
    <linearGradient
       inkscape:collect="always"
       id="linearGradient1913">
      <stop
         style="stop-color:#5cccab;stop-opacity:1;"
         offset="0"
         id="stop1909" />
      <stop
         style="stop-color:#87deaa;stop-opacity:1"
         offset="1"
         id="stop1911" />
    </linearGradient>
    <filter
       inkscape:collect="always"
       style="color-interpolation-filters:sRGB"
       id="filter8950"
       x="-0.040518563"
       width="1.081037"
       y="-0.058869861"
       height="1.1177397">
      <feGaussianBlur
         inkscape:collect="always"
         stdDeviation="1.1433147"
         id="feGaussianBlur8952" />
    </filter>
    <linearGradient
       gradientTransform="translate(-591.72941,-64.855289)"
       inkscape:collect="always"
       xlink:href="#linearGradient8698"
       id="linearGradient8700"
       x1="-73.724159"
       y1="77.839943"
       x2="-0.43879208"
       y2="151.12531"
       gradientUnits="userSpaceOnUse" />
    <linearGradient
       inkscape:collect="always"
       id="linearGradient8698">
      <stop
         style="stop-color:#03a8ac;stop-opacity:1"
         offset="0"
         id="stop8694" />
      <stop
         style="stop-color:#87deaa;stop-opacity:1"
         offset="1"
         id="stop8696" />
    </linearGradient>
    <linearGradient
       inkscape:collect="always"
       xlink:href="#linearGradient1913"
       id="linearGradient1915"
       x1="-436.8309"
       y1="30.08308"
       x2="-336.62488"
       y2="129.59808"
       gradientUnits="userSpaceOnUse" />
    <filter
       inkscape:collect="always"
       style="color-interpolation-filters:sRGB"
       id="filter2452"
       x="-0.02481341"
       width="1.0496268"
       y="-0.065553281"
       height="1.1311066">
      <feGaussianBlur
         inkscape:collect="always"
         stdDeviation="2.8011583"
         id="feGaussianBlur2454" />
    </filter>
    <filter
       inkscape:collect="always"
       style="color-interpolation-filters:sRGB"
       id="filter2466"
       x="-0.02359465"
       width="1.0471893"
       y="-0.07591247"
       height="1.1518249">
      <feGaussianBlur
         inkscape:collect="always"
         stdDeviation="2.6635738"
         id="feGaussianBlur2468" />
    </filter>
  </defs>
  <sodipodi:namedview
     id="base"
     pagecolor="#ffffff"
     bordercolor="#666666"
     borderopacity="1.0"
     inkscape:pageopacity="0.0"
     inkscape:pageshadow="2"
     inkscape:zoom="0.37734375"
     inkscape:cx="-1969.526"
     inkscape:cy="930.99045"
     inkscape:document-units="mm"
     inkscape:current-layer="layer1"
     showgrid="false"
     showguides="true"
     inkscape:guide-bbox="true"
     inkscape:window-width="1366"
     inkscape:window-height="718"
     inkscape:window-x="0"
     inkscape:window-y="24"
     inkscape:window-maximized="1" />
  <metadata
     id="metadata5">
    <rdf:RDF>
      <cc:Work
         rdf:about="">
        <dc:format>image/svg+xml</dc:format>
        <dc:type
           rdf:resource="http://purl.org/dc/dcmitype/StillImage" />
      </cc:Work>
    </rdf:RDF>
  </metadata>
  <g
     inkscape:label="Layer 1"
     inkscape:groupmode="layer"
     id="layer1">
    <rect
       style="opacity:1;fill:url(#linearGradient1915);fill-opacity:1;stroke:none;stroke-width:0.18598616;stroke-linecap:square;stroke-linejoin:miter;stroke-miterlimit:4;stroke-dasharray:none;stroke-dashoffset:0;stroke-opacity:1;paint-order:normal"
       id="rect815"
       width="270.93332"
       height="132.29167"
       x="-552.52448"
       y="11.852577"
       ry="7.5831209e-15" />
    <rect
       inkscape:export-ydpi="126"
       inkscape:export-xdpi="126"
       inkscape:export-filename="/home/ilhamst/Documents/Inkscape/Bitmap/png/logo/alquran-warna.png"
       style="opacity:1;fill:url(#linearGradient8700);fill-opacity:1;stroke:none;stroke-width:3.23180985;stroke-linecap:square;stroke-linejoin:miter;stroke-miterlimit:4;stroke-dasharray:none;stroke-dashoffset:0;stroke-opacity:1;paint-order:normal"
       id="rect1380"
       width="94.698601"
       height="94.698601"
       x="-665.45361"
       y="12.984649" />
    <g
       id="g2005"
       transform="matrix(0.86385546,0,0,0.86385546,-55.6136,1.8565216)">
      <path
         transform="matrix(1.336642,0,0,1.336642,-378.91065,-99.881603)"
         inkscape:connector-curvature="0"
         id="path8749"
         d="m -45.900545,100.8257 a 1.50015,1.50015 0 0 0 -1.50017,1.49965 v 6.90242 a 1.50015,1.50015 0 0 0 0.12506,0.59583 1.50015,1.50015 0 0 0 -0.12506,0.59375 v 4.09588 2.80448 a 1.50015,1.50015 0 0 0 1.50017,1.50016 h 4.19871 a 1.5001499,1.5001499 0 0 0 -0.15503,0.0765 c -7.42126,4.28464 -18.93528,9.4666 -18.93528,9.4666 a 1.5001499,1.5001499 0 0 0 0.83767,2.85151 c 0,0 0.94856,-0.11804 2.46084,-0.16382 l -4.72065,3.88659 a 1.5001499,1.5001499 0 0 0 1.52343,2.54506 c 0.61332,-0.25164 1.18665,-0.35628 1.78541,-0.55294 l -3.84989,2.62103 a 1.5001499,1.5001499 0 0 0 1.54513,2.56625 c 0.90281,-0.47648 1.59474,-0.59679 2.46083,-0.94929 -0.63406,0.62274 -1.19809,1.09769 -1.89239,1.86913 a 1.5001499,1.5001499 0 0 0 1.77508,2.34973 c 11.05743,-5.4291 18.31909,-4.57806 22.70921,-3.08405 0.31708,0.1079 0.61956,0.2202 0.91002,0.33435 a 1.5001499,1.5001499 0 0 0 0.0408,0.0155 c 0.26196,0.10363 0.51272,0.20947 0.75241,0.31626 0.0737,0.0328 0.10588,0.0592 0.17725,0.092 a 1.5001499,1.5001499 0 0 0 0.64647,1.88464 c 0.43775,0.24655 0.84703,0.45767 1.24024,0.63872 0.071,0.0326 0.15231,0.0697 0.24443,0.10956 0.0758,0.0328 0.14673,0.0618 0.21084,0.0879 0.0853,0.0346 0.1641,0.0645 0.23616,0.0915 a 1.5001499,1.5001499 0 0 0 0.002,0.002 c 0.0466,0.0174 0.11815,0.0455 0.21911,0.0801 0.11051,0.0379 0.19792,0.062 0.25735,0.0801 0.11712,0.0355 0.23292,0.0674 0.34778,0.0956 a 1.5001499,1.5001499 0 0 0 0.002,0 c 0.0721,0.0177 0.15685,0.0389 0.2558,0.0589 0.0812,0.0164 0.1498,0.0286 0.20154,0.0372 0.091,0.0151 0.17854,0.0267 0.26355,0.0367 l -0.002,-0.002 c 0.0489,0.006 0.11828,0.0161 0.21084,0.0232 a 1.5001499,1.5001499 0 0 0 0.008,0 c 0.10552,0.008 0.21659,0.0142 0.33589,0.0155 0.0899,0.001 0.1655,-0.001 0.23255,-0.004 0.0829,-0.002 0.18696,-0.007 0.30644,-0.0176 0.0926,-0.008 0.15688,-0.0164 0.19534,-0.0212 a 1.5001499,1.5001499 0 0 0 0.008,-0.002 c 0.0848,-0.0111 0.17731,-0.024 0.27543,-0.0413 a 1.5001499,1.5001499 0 0 0 0.004,0 c 0.0308,-0.006 0.0895,-0.015 0.1757,-0.0331 a 1.5001499,1.5001499 0 0 0 0.002,-0.002 c 0.12314,-0.026 0.2381,-0.0534 0.34933,-0.0837 a 1.5001499,1.5001499 0 0 0 0.002,0 c 0.0346,-0.009 0.0862,-0.0236 0.15245,-0.0434 0.12083,-0.036 0.24249,-0.0771 0.36535,-0.12092 v 0.002 c 0.0748,-0.0266 0.12956,-0.0499 0.16795,-0.0646 0.0925,-0.0353 0.18431,-0.0709 0.27543,-0.10904 0.0463,-0.0194 0.10652,-0.046 0.17984,-0.0785 0.13111,-0.058 0.27195,-0.12086 0.41961,-0.19327 0.3316,-0.16264 0.66968,-0.34455 1.02371,-0.54674 a 1.5001499,1.5001499 0 0 0 0.63872,-1.88102 c 0.0646,-0.0297 0.0932,-0.054 0.15968,-0.0837 0.24178,-0.10804 0.49867,-0.21708 0.76998,-0.32453 a 1.5001499,1.5001499 0 0 0 0.0289,-0.0114 c -0.0198,0.008 -0.008,0.004 0.016,-0.006 l 0.002,-0.002 c 0.28884,-0.11353 0.59072,-0.22505 0.90434,-0.33177 0.78564,-0.26733 1.94513,-0.35724 2.92023,-0.54725 -0.15206,0.22249 -0.14824,0.4041 -0.33589,0.63304 a 1.5001499,1.5001499 0 0 0 2.2226,2.01176 c 0.86151,-0.86151 1.07465,-1.04325 1.54667,-1.49397 -0.0316,0.63354 -0.15793,1.42633 -0.55087,2.5368 a 1.5001499,1.5001499 0 0 0 2.71301,1.25005 c 0.0522,-0.0905 0.0648,-0.16085 0.11524,-0.25011 1.04643,-1.85282 1.58634,-3.45479 1.830381,-5.00383 0.0301,0.004 0.0593,0.008 0.0894,0.0119 3.4095904,0.46488 7.4416107,1.62132 12.15843484,3.93723 a 1.5001499,1.5001499 0 0 0 1.77559986,-2.34921 c -0.70959397,-0.78843 -1.28069494,-1.26192 -1.92804786,-1.89652 0.86892889,0.35319 1.59130186,0.4987 2.49597286,0.97617 a 1.5001499,1.5001499 0 0 0 1.545125,-2.56626 l -3.84937786,-2.62103 c 0.59872492,0.19665 1.17161989,0.30131 1.78490486,0.55294 a 1.5001499,1.5001499 0 0 0 1.523421,-2.54506 l -4.7206429,-3.88659 c 1.51227404,0.0458 2.45876493,0.16175 2.45876493,0.16175 a 1.5001499,1.5001499 0 0 0 0.84025797,-2.8515 c 0,0 -11.514542,-5.17989 -18.9357937,-9.46454 a 1.5001499,1.5001499 0 0 0 -0.15348,-0.076 h 2.73265 a 1.50015,1.50015 0 0 0 1.50017,-1.50016 v -14.99236 a 1.50015,1.50015 0 0 0 -1.50017,-1.49965 h -2.80655 a 1.50015,1.50015 0 0 0 -0.58808,0.12092 1.50015,1.50015 0 0 0 -0.58187,-0.12092 h -2.80655 a 1.50015,1.50015 0 0 0 -1.02733,0.40979 1.50015,1.50015 0 0 0 -0.32607,-0.0367 h -2.75591 a 1.50015,1.50015 0 0 0 -0.69556,0.17157 1.50015,1.50015 0 0 0 -0.69144,-0.17157 h -2.75745 a 1.50015,1.50015 0 0 0 -0.12506,0.006 1.50015,1.50015 0 0 0 -0.99218,-0.37879 h -4.09588 -2.80654 a 1.50015,1.50015 0 0 0 -0.63872,0.14624 1.50015,1.50015 0 0 0 -0.63872,-0.14624 h -2.80655 a 1.50015,1.50015 0 0 0 -0.64441,0.14831 1.50015,1.50015 0 0 0 -0.64492,-0.14831 z"
         style="color:#000000;font-style:normal;font-variant:normal;font-weight:normal;font-stretch:normal;font-size:medium;line-height:normal;font-family:sans-serif;font-variant-ligatures:normal;font-variant-position:normal;font-variant-caps:normal;font-variant-numeric:normal;font-variant-alternates:normal;font-feature-settings:normal;text-indent:0;text-align:start;text-decoration:none;text-decoration-line:none;text-decoration-style:solid;text-decoration-color:#000000;letter-spacing:normal;word-spacing:normal;text-transform:none;writing-mode:lr-tb;direction:ltr;text-orientation:mixed;dominant-baseline:auto;baseline-shift:baseline;text-anchor:start;white-space:normal;shape-padding:0;clip-rule:nonzero;display:inline;overflow:visible;visibility:visible;opacity:0.281;isolation:auto;mix-blend-mode:normal;color-interpolation:sRGB;color-interpolation-filters:linearRGB;solid-color:#000000;solid-opacity:1;vector-effect:none;fill:#333333;fill-opacity:1;fill-rule:nonzero;stroke:none;stroke-width:3;stroke-linecap:round;stroke-linejoin:round;stroke-miterlimit:4;stroke-dasharray:none;stroke-dashoffset:0;stroke-opacity:1;filter:url(#filter8950);color-rendering:auto;image-rendering:auto;shape-rendering:auto;text-rendering:auto;enable-background:accumulate" />
      <g
         transform="matrix(1.336642,0,0,1.336642,-383.14401,-106.76081)"
         id="g8820">
        <path
           id="path8374"
           d="m -15.466557,111.63435 -19.112529,7.84862 c -0.279471,-0.0121 -0.562967,-0.0191 -0.854728,-0.0139 v 5.3e-4 5.3e-4 a 1.50015,1.50015 0 0 0 -0.265618,0.0295 c -0.806238,0.0282 -1.641118,0.1038 -2.529044,0.28318 a 1.50015,1.50015 0 0 0 -0.453202,0.17002 c -7.421253,4.28465 -18.935279,9.46661 -18.935279,9.46661 a 1.50015,1.50015 0 0 0 0.837676,2.8515 c 0,0 0.948558,-0.11803 2.460832,-0.16381 l -4.720643,3.88658 a 1.50015,1.50015 0 0 0 1.523423,2.54506 c 0.613325,-0.25164 1.186656,-0.35627 1.785419,-0.55293 l -3.849894,2.62103 a 1.50015,1.50015 0 0 0 1.545127,2.56625 c 0.902808,-0.47648 1.594739,-0.59679 2.460831,-0.9493 -0.634063,0.62275 -1.198091,1.09769 -1.892392,1.86914 a 1.50015,1.50015 0 0 0 1.775087,2.34973 c 11.057421,-5.4291 18.319088,-4.57806 22.709208,-3.08405 0.317077,0.1079 0.619562,0.22019 0.910021,0.33434 a 1.50015,1.50015 0 0 0 0.04083,0.0155 c 0.261962,0.10363 0.512715,0.20946 0.752409,0.31626 0.07367,0.0328 0.105876,0.0592 0.17725,0.092 a 1.50015,1.50015 0 0 0 0.646472,1.88464 c 0.437751,0.24654 0.847021,0.45767 1.240234,0.63872 0.07096,0.0326 0.152308,0.0697 0.244431,0.10955 0.07582,0.0328 0.146729,0.0618 0.210838,0.0879 0.08529,0.0346 0.164105,0.0645 0.236162,0.0915 a 1.50015,1.50015 0 0 0 0.0021,0.002 c 0.04658,0.0174 0.118148,0.0455 0.21911,0.0801 0.110514,0.0379 0.197921,0.062 0.257347,0.0801 0.117123,0.0355 0.232926,0.0674 0.347784,0.0956 a 1.50015,1.50015 0 0 0 0.0021,0 c 0.0721,0.0177 0.156853,0.0389 0.255796,0.0589 0.08122,0.0164 0.149802,0.0286 0.201539,0.0372 0.09105,0.0151 0.17854,0.0267 0.263551,0.0367 l -0.0021,-0.002 c 0.04893,0.006 0.118285,0.0161 0.210842,0.0233 a 1.50015,1.50015 0 0 0 0.0078,0 c 0.105518,0.008 0.216593,0.0142 0.335896,0.0155 0.08989,0.001 0.165492,-0.001 0.232543,-0.004 0.08295,-0.002 0.186967,-0.007 0.306443,-0.0176 0.09262,-0.008 0.156882,-0.0164 0.195336,-0.0212 a 1.50015,1.50015 0 0 0 0.0078,-0.002 c 0.08482,-0.0111 0.177315,-0.0239 0.275433,-0.0413 a 1.50015,1.50015 0 0 0 0.0041,0 c 0.03076,-0.006 0.08951,-0.015 0.175699,-0.0331 a 1.50015,1.50015 0 0 0 0.0021,-0.002 c 0.123145,-0.026 0.238098,-0.0534 0.349332,-0.0837 a 1.50015,1.50015 0 0 0 0.0021,0 c 0.0346,-0.009 0.08619,-0.0236 0.152445,-0.0434 0.120835,-0.036 0.242498,-0.0771 0.365352,-0.12093 v 0.002 c 0.07483,-0.0266 0.129559,-0.0499 0.167947,-0.0646 0.09248,-0.0353 0.184319,-0.0709 0.275437,-0.10904 0.04629,-0.0194 0.106513,-0.0461 0.179834,-0.0786 0.131117,-0.058 0.271957,-0.12086 0.419611,-0.19327 0.331607,-0.16264 0.669687,-0.34455 1.02371,-0.54674 a 1.50015,1.50015 0 0 0 0.638722,-1.88102 c 0.0646,-0.0297 0.09318,-0.054 0.159679,-0.0837 0.241784,-0.10804 0.498674,-0.21709 0.76998,-0.32453 a 1.50015,1.50015 0 0 0 0.02894,-0.0114 c -0.01984,0.008 -0.0082,0.004 0.01601,-0.006 l 0.0016,-0.002 c 0.288843,-0.11352 0.59072,-0.22504 0.904338,-0.33176 0.785643,-0.26733 1.945132,-0.35725 2.920235,-0.54726 -0.152058,0.22249 -0.148243,0.40411 -0.335896,0.63304 a 1.50015,1.50015 0 0 0 2.222603,2.01176 c 0.861513,-0.86151 1.074648,-1.04324 1.546675,-1.49396 -0.03161,0.63354 -0.157933,1.42632 -0.550871,2.53679 a 1.50015,1.50015 0 0 0 2.713011,1.25006 c 0.05222,-0.0905 0.06483,-0.16086 0.11524,-0.25012 1.046421,-1.85282 1.5863408,-3.45479 1.8303792,-5.00383 0.030099,0.004 0.059269,0.008 0.0894,0.0119 3.4095928,0.46487 7.4416099,1.62132 12.1584322,3.93723 a 1.50015,1.50015 0 0 0 1.7756002,-2.34921 c -0.709594,-0.78843 -1.2806945,-1.26192 -1.9280479,-1.89652 0.8689287,0.35319 1.5913021,0.49869 2.4959733,0.97616 a 1.50015,1.50015 0 0 0 1.5451244,-2.56625 l -3.8493779,-2.62103 c 0.5987256,0.19665 1.1716199,0.30131 1.7849056,0.55294 a 1.50015,1.50015 0 0 0 1.5234205,-2.54506 l -4.7206428,-3.88659 c 1.5122736,0.0458 2.4587649,0.16175 2.4587649,0.16175 a 1.50015,1.50015 0 0 0 0.8402584,-2.85151 c 0,0 -11.5145421,-5.17988 -18.9357951,-9.46453 a 1.50015,1.50015 0 0 0 -0.453202,-0.17002 c -0.13499,-0.0273 -0.267986,-0.0505 -0.401008,-0.0739 z"
           style="color:#000000;font-style:normal;font-variant:normal;font-weight:normal;font-stretch:normal;font-size:medium;line-height:normal;font-family:sans-serif;font-variant-ligatures:normal;font-variant-position:normal;font-variant-caps:normal;font-variant-numeric:normal;font-variant-alternates:normal;font-feature-settings:normal;text-indent:0;text-align:start;text-decoration:none;text-decoration-line:none;text-decoration-style:solid;text-decoration-color:#000000;letter-spacing:normal;word-spacing:normal;text-transform:none;writing-mode:lr-tb;direction:ltr;text-orientation:mixed;dominant-baseline:auto;baseline-shift:baseline;text-anchor:start;white-space:normal;shape-padding:0;clip-rule:nonzero;display:inline;overflow:visible;visibility:visible;opacity:1;isolation:auto;mix-blend-mode:normal;color-interpolation:sRGB;color-interpolation-filters:linearRGB;solid-color:#000000;solid-opacity:1;vector-effect:none;fill:#ffffff;fill-opacity:1;fill-rule:nonzero;stroke:none;stroke-width:3;stroke-linecap:round;stroke-linejoin:round;stroke-miterlimit:4;stroke-dasharray:none;stroke-dashoffset:0;stroke-opacity:1;color-rendering:auto;image-rendering:auto;shape-rendering:auto;text-rendering:auto;enable-background:accumulate"
           inkscape:connector-curvature="0" />
        <g
           id="g7098"
           transform="translate(48.155222,13.21961)">
          <path
             inkscape:connector-curvature="0"
             id="path1395"
             d="m -105.15728,117.56721 c 0,0 19.647258,-2.96152 30.626628,13.21858 -0.79456,-12.27955 -0.57787,-19.64728 -0.57787,-19.64728 0,0 -3.82832,-4.55065 -10.97935,-3.106 -7.54822,4.35796 -19.069408,9.5347 -19.069408,9.5347 z"
             style="fill:#00d6d6;fill-opacity:1;stroke:none;stroke-width:0.40489981px;stroke-linecap:square;stroke-linejoin:miter;stroke-opacity:1" />
          <path
             sodipodi:nodetypes="cccccc"
             inkscape:connector-curvature="0"
             id="path1399"
             d="m -106.89086,128.62682 9.832398,-6.69685 c 0,0 11.62069,-1.46545 20.72199,8.79159 -3.21978,-1.85895 -12.13507,-6.71764 -28.170708,1.15572 4.550648,-5.05628 7.873348,-6.64539 7.873348,-6.64539 0,0 -5.056278,0.65008 -10.257028,3.39493 z"
             style="fill:#00d6d6;fill-opacity:1;stroke:none;stroke-width:0.40553746;stroke-linecap:square;stroke-linejoin:miter;stroke-miterlimit:4;stroke-dasharray:none;stroke-opacity:1" />
          <path
             id="path1432"
             transform="matrix(0.26458333,0,0,0.26458333,49.366772,77.839943)"
             d="m -546.01758,166.37891 c -4.65504,-0.0865 -7.40039,0.25976 -7.40039,0.25976 l -10.08984,6.87305 c 31.12976,-4.24481 56.61028,8.12871 72.08789,18.78516 2.60701,0.8872 4.98098,1.83281 7.09961,2.7832 -10.75862,-11.14535 -22.37241,-18.64036 -33.35157,-23.69727 -11.65117,-3.91233 -21.85616,-4.88335 -28.3457,-5.0039 z"
             style="opacity:0.3;fill:#1a1a1a;fill-opacity:1;stroke:none;stroke-width:1.53032994px;stroke-linecap:square;stroke-linejoin:miter;stroke-opacity:1"
             inkscape:connector-curvature="0" />
          <path
             sodipodi:nodetypes="cccc"
             inkscape:connector-curvature="0"
             id="path1397"
             d="m -106.24077,123.93169 6.13977,-5.05628 c 0,0 14.121478,-0.90289 23.764528,11.84615 0,0 -12.72896,-13.83663 -29.904298,-6.78987 z"
             style="fill:#005050;fill-opacity:1;stroke:none;stroke-width:0.40489981px;stroke-linecap:square;stroke-linejoin:miter;stroke-opacity:1" />
          <path
             style="fill:#00b2b2;fill-opacity:1;stroke:none;stroke-width:0.40489981px;stroke-linecap:square;stroke-linejoin:miter;stroke-opacity:1"
             d="m -43.904022,117.56721 c 0,0 -19.64726,-2.96152 -30.62663,13.21858 0.79456,-12.27955 0.57787,-19.64728 0.57787,-19.64728 0,0 3.82832,-4.55065 10.97935,-3.106 7.54822,4.35796 19.06941,9.5347 19.06941,9.5347 z"
             id="path1401"
             inkscape:connector-curvature="0" />
          <path
             style="fill:#00b2b2;fill-opacity:1;stroke:none;stroke-width:0.40553746;stroke-linecap:square;stroke-linejoin:miter;stroke-miterlimit:4;stroke-dasharray:none;stroke-opacity:1"
             d="m -42.170442,128.62682 -9.8324,-6.69685 c 0,0 -11.62069,-1.46545 -20.72199,8.79159 3.21978,-1.85895 12.13507,-6.71764 28.17071,1.15572 -4.55065,-5.05628 -7.87335,-6.64539 -7.87335,-6.64539 0,0 5.05628,0.65008 10.25703,3.39493 z"
             id="path1405"
             inkscape:connector-curvature="0"
             sodipodi:nodetypes="cccccc" />
          <path
             style="opacity:0.3;fill:#1a1a1a;stroke:none;stroke-width:0.26458332px;stroke-linecap:butt;stroke-linejoin:miter;stroke-opacity:1"
             d="m -57.596064,124.58593 c 3.00787,-0.0475 5.249809,0.64595 5.249809,0.64595 0,0 1.771341,0.90123 4.213487,3.00579 -5.168826,-2.86328 -13.193291,-3.18766 -14.056983,-3.18766 1.118088,-0.23363 3.591064,-0.44827 4.593687,-0.46408 z"
             id="path1443"
             inkscape:connector-curvature="0"
             sodipodi:nodetypes="ccccc" />
          <path
             id="path1420"
             transform="matrix(0.26458333,0,0,0.26458333,49.366772,77.839943)"
             d="m -390.5293,166.37891 c -4.47081,0.0831 -10.73029,0.59755 -17.98632,2.17187 -0.003,-0.006 -0.005,-0.0116 -0.008,-0.0176 -0.31067,0.0674 -0.637,0.15331 -0.95117,0.22461 -0.56387,0.12833 -1.12794,0.26054 -1.70312,0.40235 -0.76929,0.18905 -1.55154,0.39667 -2.33985,0.61132 -0.5965,0.16277 -1.18649,0.31803 -1.79297,0.4961 -0.12415,0.0364 -0.2426,0.0645 -0.36718,0.10156 -0.005,0.004 -0.007,0.008 -0.0117,0.0117 -1.04936,0.31271 -2.10781,0.64076 -3.1836,1.00195 -10.98052,5.05723 -22.59748,12.55196 -33.35742,23.69922 2.12008,-0.95117 4.49426,-1.8992 7.10352,-2.78711 7.69751,-5.2997 17.87028,-11.02274 29.98047,-14.91601 0.17049,2.81457 -0.0149,6.40077 -1.17969,10.43164 4.26223,0.0312 8.82194,0.35294 13.66797,1.01367 0.0526,-4.49939 -1.0548,-8.91288 -3.07813,-13.97852 9.93207,-2.16295 20.90861,-2.94147 32.69727,-1.33398 l -10.08985,-6.87305 c 0,0 -2.74534,-0.34624 -7.40039,-0.25976 z"
             style="opacity:0.3;fill:#1a1a1a;fill-opacity:1;stroke:none;stroke-width:0.99999994px;stroke-linecap:butt;stroke-linejoin:miter;stroke-opacity:1"
             inkscape:connector-curvature="0" />
          <path
             style="fill:#003636;fill-opacity:1;stroke:none;stroke-width:0.40489981px;stroke-linecap:square;stroke-linejoin:miter;stroke-opacity:1"
             d="m -42.820532,123.93169 -6.13977,-5.05628 c 0,0 -14.12148,-0.90289 -23.76453,11.84615 0,0 12.72896,-13.83663 29.9043,-6.78987 z"
             id="path1403"
             inkscape:connector-curvature="0"
             sodipodi:nodetypes="cccc" />
          <path
             inkscape:connector-curvature="0"
             id="path1418"
             d="m -62.309034,123.29793 c 0,0 1.468538,3.80486 -1.869053,7.87672 3.170713,-3.17071 3.404343,-3.20409 3.404343,-3.20409 0,0 1.602044,1.46854 0.06675,5.80741 2.774267,-4.80517 2.469819,-7.00894 0.333761,-11.41456 -1.827289,0.48962 -1.935803,0.93452 -1.935803,0.93452 z"
             style="fill:#003636;fill-opacity:1;stroke:none;stroke-width:0.26458332px;stroke-linecap:butt;stroke-linejoin:miter;stroke-opacity:1" />
          <path
             sodipodi:nodetypes="ccccc"
             inkscape:connector-curvature="0"
             id="path1437"
             transform="matrix(0.26458333,0,0,0.26458333,49.366772,77.839943)"
             d="m -531.9707,176.67773 c -11.36833,-0.17934 -19.8418,2.44141 -19.8418,2.44141 0,0 -6.69483,3.4062 -15.92499,11.36046 19.53572,-10.82184 54.78407,-11.79557 58.04843,-11.79557 -4.22586,-0.88301 -18.4922,-1.94651 -22.28164,-2.0063 z"
             style="opacity:0.3;fill:#1a1a1a;stroke:none;stroke-width:0.99999994px;stroke-linecap:butt;stroke-linejoin:miter;stroke-opacity:1" />
          <path
             sodipodi:nodetypes="ccccc"
             inkscape:connector-curvature="0"
             id="path1450"
             transform="matrix(0.26458333,0,0,0.26458333,49.366772,77.839943)"
             d="m -472.27539,199.61523 c -2.38669,0.0521 -5.54421,0.70286 -8.63477,3.09961 10.58583,5.96208 15.16484,5.77332 25.27344,0 -6.18112,-4.7935 -12.63672,-2.60546 -12.63672,-2.60546 0,0 -1.61526,-0.54621 -4.00195,-0.49415 z"
             style="fill:#088585;fill-opacity:1;stroke:none;stroke-width:0.99999994px;stroke-linecap:butt;stroke-linejoin:miter;stroke-opacity:1" />
          <path
             id="path1455"
             transform="matrix(0.26458333,0,0,0.26458333,49.366772,77.839943)"
             d="m -458.24023,119.50781 c -5.1699,3.18216 -7.84961,6.34571 -7.84961,6.34571 0,0 0.81946,27.84496 -2.1836,74.25586 6.39152,-9.41906 13.56233,-17.11455 21.11719,-23.40626 z"
             style="opacity:0.3;fill:#1a1a1a;stroke:none;stroke-width:0.99999994px;stroke-linecap:butt;stroke-linejoin:miter;stroke-opacity:1"
             inkscape:connector-curvature="0" />
          <path
             inkscape:connector-curvature="0"
             style="opacity:0.15;fill:#1a1a1a;stroke:none;stroke-width:0.26458332px;stroke-linecap:butt;stroke-linejoin:miter;stroke-opacity:1"
             d="m -77.185272,109.45972 c 1.36787,0.84194 2.076876,1.67897 2.076876,1.67897 0,0 -0.216815,7.36731 0.577744,19.64686 -1.691089,-2.49213 -3.588366,-4.52823 -5.587256,-6.19291 z"
             id="path1460" />
          <path
             id="path1462"
             transform="matrix(0.26458333,0,0,0.26458333,49.366772,77.839943)"
             d="m -467.0918,203.83398 c -4.14369,-0.0494 -7.77293,0.36144 -10.28125,0.74219 7.06849,3.41814 11.47681,3.34088 18.2461,0.008 -2.68777,-0.50095 -5.40533,-0.7195 -7.96485,-0.75 z"
             style="opacity:0.3;fill:#1a1a1a;stroke:none;stroke-width:0.99999994px;stroke-linecap:butt;stroke-linejoin:miter;stroke-opacity:1"
             inkscape:connector-curvature="0" />
        </g>
        <path
           style="color:#000000;font-style:normal;font-variant:normal;font-weight:normal;font-stretch:normal;font-size:medium;line-height:normal;font-family:sans-serif;font-variant-ligatures:normal;font-variant-position:normal;font-variant-caps:normal;font-variant-numeric:normal;font-variant-alternates:normal;font-feature-settings:normal;text-indent:0;text-align:start;text-decoration:none;text-decoration-line:none;text-decoration-style:solid;text-decoration-color:#000000;letter-spacing:normal;word-spacing:normal;text-transform:none;writing-mode:lr-tb;direction:ltr;text-orientation:mixed;dominant-baseline:auto;baseline-shift:baseline;text-anchor:start;white-space:normal;shape-padding:0;clip-rule:nonzero;display:inline;overflow:visible;visibility:visible;opacity:1;isolation:auto;mix-blend-mode:normal;color-interpolation:sRGB;color-interpolation-filters:linearRGB;solid-color:#000000;solid-opacity:1;vector-effect:none;fill:#ffffff;fill-opacity:1;fill-rule:nonzero;stroke:none;stroke-width:3;stroke-linecap:round;stroke-linejoin:round;stroke-miterlimit:4;stroke-dasharray:none;stroke-dashoffset:0;stroke-opacity:1;paint-order:markers stroke fill;color-rendering:auto;image-rendering:auto;shape-rendering:auto;text-rendering:auto;enable-background:accumulate"
           d="m -42.725362,101.88391 a 1.50015,1.50015 0 0 0 -1.500167,1.49965 v 6.90242 a 1.50015,1.50015 0 0 0 0.125058,0.59583 1.50015,1.50015 0 0 0 -0.125058,0.59376 v 4.09587 2.80448 a 1.50015,1.50015 0 0 0 1.500167,1.50017 h 6.902421 a 1.50015,1.50015 0 0 0 0.63872,-0.14469 1.50015,1.50015 0 0 0 0.638722,0.14469 h 6.902421 8.017597 a 1.50015,1.50015 0 0 0 1.499651,-1.50017 v -2.43551 h 2.33009 v 2.43551 a 1.50015,1.50015 0 0 0 1.500166,1.50017 h 2.806549 a 1.50015,1.50015 0 0 0 1.500167,-1.50017 v -14.99236 a 1.50015,1.50015 0 0 0 -1.500167,-1.49965 h -2.806549 a 1.50015,1.50015 0 0 0 -0.588076,0.12092 1.50015,1.50015 0 0 0 -0.581877,-0.12092 h -2.806547 a 1.50015,1.50015 0 0 0 -1.027329,0.40979 1.50015,1.50015 0 0 0 -0.326078,-0.0367 h -2.755902 a 1.50015,1.50015 0 0 0 -0.695566,0.17157 1.50015,1.50015 0 0 0 -0.69143,-0.17157 h -2.757456 a 1.50015,1.50015 0 0 0 -0.125055,0.006 1.50015,1.50015 0 0 0 -0.992188,-0.37878 h -4.095874 -2.806547 a 1.50015,1.50015 0 0 0 -0.638722,0.14624 1.50015,1.50015 0 0 0 -0.63872,-0.14624 h -2.806547 a 1.50015,1.50015 0 0 0 -0.644406,0.14831 1.50015,1.50015 0 0 0 -0.644922,-0.14831 z"
           id="path8608"
           inkscape:connector-curvature="0" />
        <g
           id="g8534"
           transform="translate(99.273083,-2.581542)">
          <g
             id="g8555"
             transform="matrix(0.96693827,0,0,0.96693827,51.58845,0.13673756)">
            <path
               style="opacity:1;vector-effect:none;fill:#00b2b2;fill-opacity:1;stroke:none;stroke-width:0.79412705px;stroke-linecap:butt;stroke-linejoin:miter;stroke-miterlimit:4;stroke-dasharray:none;stroke-dashoffset:0;stroke-opacity:1;paint-order:markers stroke fill"
               d="m -530.49219,38.908203 v 26.085938 h 10.60547 V 38.908203 Z m 30.91602,0 v 10.605469 30.355469 h 10.60547 V 49.513672 h 15.48047 V 38.908203 h -15.48047 z m 76.53515,0 v 56.662109 h 10.60547 V 38.908203 Z m -46.23046,1.40625 v 7.792969 h 10.42382 v -7.792969 z m 15.66406,0 v 7.792969 h 10.42187 v -7.792969 z"
               transform="matrix(0.27363002,0,0,0.27363002,-55.046821,98.80164)"
               id="path2293"
               inkscape:connector-curvature="0" />
            <path
               inkscape:export-ydpi="96"
               inkscape:export-xdpi="96"
               inkscape:export-filename="/home/ilhamst/Documents/Mockup/bang-ahmad/logo-apps.png"
               style="opacity:1;vector-effect:none;fill:#000000;fill-opacity:1;stroke:none;stroke-width:0.21022592px;stroke-linecap:butt;stroke-linejoin:miter;stroke-miterlimit:4;stroke-dasharray:none;stroke-dashoffset:0;stroke-opacity:1;paint-order:markers stroke fill"
               d="m -174.91696,110.4406 v 7.53943 h 2.90194 v -7.53943 z"
               id="path2947"
               inkscape:connector-curvature="0" />
            <path
               style="opacity:1;vector-effect:none;fill:#005050;fill-opacity:1;stroke:none;stroke-width:0.53498316px;stroke-linecap:butt;stroke-linejoin:miter;stroke-miterlimit:4;stroke-dasharray:none;stroke-dashoffset:0;stroke-opacity:1;paint-order:markers stroke fill"
               d="m -515.01172,38.908203 v 46.056641 h -4.875 V 69.484375 h -10.60547 v 15.480469 10.605468 h 26.08594 V 84.964844 38.908203 Z m 76.9375,0 v 31.179688 h -5.11133 V 69.484375 54.607422 h -15.48047 -10.60546 v 10.605469 4.875 10.605468 h 10.60546 4.875 v 4.271485 h -19.69921 V 54.607422 h -10.60547 v 30.357422 h -15.48047 v 10.605468 h 26.08594 30.30468 V 84.964844 80.693359 h 15.7168 V 75.927734 70.087891 38.908203 Z m -20.5918,26.304688 h 4.875 v 4.875 h -4.875 z"
               transform="matrix(0.27363002,0,0,0.27363002,-55.046821,98.80164)"
               id="path2962"
               inkscape:connector-curvature="0" />
          </g>
        </g>
      </g>
    </g>
    <path
       sodipodi:nodetypes="scccccsssssscss"
       inkscape:connector-curvature="0"
       id="path2326"
       d="m -540.82021,50.34841 c -4.4019,-0.04997 -8.51659,1.699881 -11.70418,3.622 v 98.93141 h 135.46666 135.46667 V 53.97041 c -3.18762,-1.922119 -7.30232,-3.671969 -11.70422,-3.622 -6.20683,0.07046 -16.93468,2.724954 -22.41259,14.502474 -14.02342,30.15045 -18.59875,30.377092 -27.01282,26.871228 -8.41409,-3.505867 -12.71802,12.751918 -30.94849,24.671858 -18.23051,11.91995 -35.67565,21.17442 -43.38855,21.17442 -7.71292,0 -25.15806,-9.25447 -43.38857,-21.17442 -18.23048,-11.91994 -22.5344,-28.177725 -30.9485,-24.671858 -8.41406,3.505864 -12.98937,3.279222 -27.01282,-26.871228 -5.4779,-11.77752 -16.20575,-14.432016 -22.41259,-14.502474 z"
       style="opacity:0.16799999;fill:#464646;fill-opacity:1;stroke:none;stroke-width:0.18598616;stroke-linecap:square;stroke-linejoin:miter;stroke-miterlimit:4;stroke-dasharray:none;stroke-dashoffset:0;stroke-opacity:1;paint-order:normal;filter:url(#filter2452)" />
    <path
       style="opacity:1;fill:#2ad2ba;fill-opacity:1;stroke:none;stroke-width:0.18598616;stroke-linecap:square;stroke-linejoin:miter;stroke-miterlimit:4;stroke-dasharray:none;stroke-dashoffset:0;stroke-opacity:1;paint-order:normal"
       d="m -540.82021,52.994245 c -4.4019,-0.04997 -8.51659,1.699881 -11.70418,3.622 v 98.931425 h 135.46666 135.46667 V 56.616245 c -3.18762,-1.922119 -7.30232,-3.671969 -11.70422,-3.622 -6.20683,0.07046 -16.93468,2.724954 -22.41259,14.502474 -14.02342,30.15045 -18.59875,30.377092 -27.01282,26.871228 -8.41409,-3.505867 -12.71802,12.751933 -30.94849,24.671873 -18.23051,11.91995 -35.67565,21.17442 -43.38855,21.17442 -7.71292,0 -25.15806,-9.25447 -43.38857,-21.17442 -18.23048,-11.91994 -22.5344,-28.17774 -30.9485,-24.671873 -8.41406,3.505864 -12.98937,3.279222 -27.01282,-26.871228 -5.4779,-11.77752 -16.20575,-14.432016 -22.41259,-14.502474 z"
       id="path1966"
       inkscape:connector-curvature="0"
       sodipodi:nodetypes="scccccsssssscss" />
    <path
       inkscape:connector-curvature="0"
       id="path2456"
       d="m -540.82021,69.22219 c -4.4019,-0.04997 -8.51654,1.699884 -11.70418,3.622003 v 80.586797 h 270.93333 V 72.844193 c -7.68237,-4.632381 -20.78776,-8.257998 -30.15062,11.872142 -14.02345,30.150435 -20.33405,18.230015 -28.74812,14.724161 -8.41409,-3.505862 -7.01141,6.310984 -25.24188,18.230924 -18.23051,11.91995 -43.61318,13.23692 -51.32605,13.23692 -7.71292,0 -33.09556,-1.31697 -51.32607,-13.23692 -18.23048,-11.91994 -16.82829,-21.736786 -25.24239,-18.230924 -8.41406,3.505854 -14.72416,15.426274 -28.74761,-14.724161 -5.47791,-11.777519 -12.23957,-15.423687 -18.44641,-15.494145 z"
       style="opacity:0.26800005;fill:#494949;fill-opacity:1;stroke:none;stroke-width:0.18598616;stroke-linecap:square;stroke-linejoin:miter;stroke-miterlimit:4;stroke-dasharray:none;stroke-dashoffset:0;stroke-opacity:1;paint-order:normal;filter:url(#filter2466)" />
    <path
       style="opacity:1;fill:#ffffff;fill-opacity:1;stroke:none;stroke-width:0.18598616;stroke-linecap:square;stroke-linejoin:miter;stroke-miterlimit:4;stroke-dasharray:none;stroke-dashoffset:0;stroke-opacity:1;paint-order:normal"
       d="m -540.82021,71.338858 c -4.4019,-0.04997 -8.51654,1.699884 -11.70418,3.622003 v 80.586809 h 270.93333 V 74.960861 c -7.68237,-4.632381 -20.78776,-8.257998 -30.15062,11.872142 -14.02345,30.150447 -20.33405,18.230027 -28.74812,14.724167 -8.41409,-3.505868 -7.01141,6.31099 -25.24188,18.23093 -18.23051,11.91995 -43.61318,13.23692 -51.32605,13.23692 -7.71292,0 -33.09556,-1.31697 -51.32607,-13.23692 -18.23048,-11.91994 -16.82829,-21.736798 -25.24239,-18.23093 -8.41406,3.50586 -14.72416,15.42628 -28.74761,-14.724167 -5.47791,-11.777519 -12.23957,-15.423687 -18.44641,-15.494145 z"
       id="rect1932"
       inkscape:connector-curvature="0" />
    <path
       style="color:#000000;font-style:normal;font-variant:normal;font-weight:normal;font-stretch:normal;font-size:11.12712669px;line-height:1.25;font-family:sans-serif;font-variant-ligatures:normal;font-variant-position:normal;font-variant-caps:normal;font-variant-numeric:normal;font-variant-alternates:normal;font-feature-settings:normal;text-indent:0;text-align:start;text-decoration:none;text-decoration-line:none;text-decoration-style:solid;text-decoration-color:#000000;letter-spacing:0px;word-spacing:0px;text-transform:none;writing-mode:lr-tb;direction:ltr;text-orientation:mixed;dominant-baseline:auto;baseline-shift:baseline;text-anchor:start;white-space:normal;shape-padding:0;clip-rule:nonzero;display:inline;overflow:visible;visibility:visible;opacity:1;isolation:auto;mix-blend-mode:normal;color-interpolation:sRGB;color-interpolation-filters:linearRGB;solid-color:#000000;solid-opacity:1;vector-effect:none;fill:#d5feea;fill-opacity:1;fill-rule:nonzero;stroke:none;stroke-width:7.55905533;stroke-linecap:round;stroke-linejoin:round;stroke-miterlimit:4;stroke-dasharray:none;stroke-dashoffset:0;stroke-opacity:1;color-rendering:auto;image-rendering:auto;shape-rendering:auto;text-rendering:auto;enable-background:accumulate"
       d="M -1690.2383 342.56445 A 3.7799055 3.7799055 0 0 0 -1693.6641 344.74805 L -1708.3828 376.28516 A 3.7799055 3.7799055 0 0 0 -1704.959 381.66602 L -1696.6758 381.66602 A 3.7799055 3.7799055 0 0 0 -1693.2422 379.4668 L -1692.3574 377.54688 L -1684.2734 377.54688 L -1683.3594 379.48828 A 3.7799055 3.7799055 0 0 0 -1679.9336 381.66602 L -1671.6504 381.66602 A 3.7799055 3.7799055 0 0 0 -1669.5547 381.02344 A 3.7799055 3.7799055 0 0 0 -1667.459 381.66602 L -1647.8145 381.66602 A 3.7799055 3.7799055 0 0 0 -1644.0352 377.88672 L -1644.0352 369.55859 A 3.7799055 3.7799055 0 0 0 -1644.9141 367.13867 A 3.7799055 3.7799055 0 0 0 -1643.8887 367.28516 L -1627.3164 367.28516 A 3.7799055 3.7799055 0 0 0 -1625.9434 367.01953 C -1623.71 375.35599 -1616.3992 381.66602 -1607.3848 381.66602 C -1604.9897 381.66602 -1602.866 380.66623 -1600.6973 379.8418 L -1599.9355 380.58008 A 3.7799055 3.7799055 0 0 0 -1597.293 381.66602 L -1585.7266 381.66602 A 3.7799055 3.7799055 0 0 0 -1581.9473 377.82031 C -1579.1499 380.10668 -1575.7212 381.66602 -1571.8398 381.66602 C -1565.1798 381.66602 -1559.3832 377.58529 -1556.9004 371.75977 L -1556.9004 377.88672 A 3.7799055 3.7799055 0 0 0 -1553.1191 381.66602 L -1544.8301 381.66602 A 3.7799055 3.7799055 0 0 0 -1541.0508 377.88672 L -1541.0508 374.70508 L -1538.0898 379.79102 A 3.7799055 3.7799055 0 0 0 -1534.8203 381.66602 L -1525.2754 381.66602 A 3.7799055 3.7799055 0 0 0 -1522.0137 375.98242 L -1527.498 366.5918 C -1525.7388 364.10248 -1524.4414 361.23902 -1524.4414 357.94727 C -1524.4414 349.49933 -1531.3782 342.56445 -1539.8262 342.56445 L -1553.1191 342.56445 A 3.7799055 3.7799055 0 0 0 -1556.2578 344.24023 A 3.7799055 3.7799055 0 0 0 -1559.3945 342.56445 L -1567.7207 342.56445 A 3.7799055 3.7799055 0 0 0 -1571.502 346.34375 L -1571.502 365.30664 C -1571.502 365.52453 -1571.6221 365.6543 -1571.8398 365.6543 C -1572.0579 365.6543 -1572.1875 365.52457 -1572.1875 365.30664 L -1572.1875 346.34375 A 3.7799055 3.7799055 0 0 0 -1575.9668 342.56445 L -1584.293 342.56445 A 3.7799055 3.7799055 0 0 0 -1588.0723 346.34375 L -1588.0723 360.95312 C -1588.7122 350.76904 -1597.047 342.56445 -1607.3848 342.56445 C -1615.1756 342.56445 -1621.8336 347.25823 -1624.9688 353.89453 A 3.7799055 3.7799055 0 0 0 -1627.3145 353.07617 L -1643.8867 353.07617 A 3.7799055 3.7799055 0 0 0 -1647.668 356.85547 L -1647.668 363.50586 A 3.7799055 3.7799055 0 0 0 -1646.7812 365.92773 A 3.7799055 3.7799055 0 0 0 -1647.8145 365.7793 L -1655.3887 365.7793 L -1655.3887 346.34375 A 3.7799055 3.7799055 0 0 0 -1659.168 342.56445 L -1667.459 342.56445 A 3.7799055 3.7799055 0 0 0 -1671.2383 346.34375 L -1671.2383 369.89258 L -1683.0781 344.73438 A 3.7799055 3.7799055 0 0 0 -1686.4961 342.56445 L -1690.2383 342.56445 z M -1496.9668 342.56445 A 3.7799055 3.7799055 0 0 0 -1500.3906 344.74805 L -1515.1113 376.28516 A 3.7799055 3.7799055 0 0 0 -1511.6855 381.66602 L -1503.4023 381.66602 A 3.7799055 3.7799055 0 0 0 -1499.9707 379.4668 L -1499.084 377.54688 L -1491.002 377.54688 L -1490.0859 379.48828 A 3.7799055 3.7799055 0 0 0 -1486.6602 381.66602 L -1478.3789 381.66602 A 3.7799055 3.7799055 0 0 0 -1476.2812 381.02344 A 3.7799055 3.7799055 0 0 0 -1474.1777 381.66602 L -1465.8965 381.66602 A 3.7799055 3.7799055 0 0 0 -1462.1152 377.88672 L -1462.1152 372.09961 L -1453.6855 380.55078 A 3.7799055 3.7799055 0 0 0 -1451.0059 381.66602 L -1447.6035 381.66602 A 3.7799055 3.7799055 0 0 0 -1443.8242 377.88672 L -1443.8242 346.34375 A 3.7799055 3.7799055 0 0 0 -1447.6035 342.56445 L -1455.8867 342.56445 A 3.7799055 3.7799055 0 0 0 -1459.666 346.34375 L -1459.666 352.13086 L -1468.1465 343.67188 A 3.7799055 3.7799055 0 0 0 -1470.8203 342.56445 L -1474.1777 342.56445 A 3.7799055 3.7799055 0 0 0 -1477.957 346.34375 L -1477.957 369.90625 L -1489.8047 344.73438 A 3.7799055 3.7799055 0 0 0 -1493.2227 342.56445 L -1496.9668 342.56445 z M -1520.3145 343.44922 A 3.7799055 3.7799055 0 0 0 -1524.0938 347.22852 L -1524.0938 358.62695 A 3.7799055 3.7799055 0 0 0 -1520.3145 362.40625 L -1516.8242 362.40625 A 3.7799055 3.7799055 0 0 0 -1513.043 358.62695 L -1513.043 347.22852 A 3.7799055 3.7799055 0 0 0 -1516.8242 343.44922 L -1520.3145 343.44922 z "
       transform="scale(0.26458333)"
       id="path2524" />
    <text
       xml:space="preserve"
       style="font-style:normal;font-weight:normal;font-size:11.12712669px;line-height:1.25;font-family:sans-serif;text-align:start;letter-spacing:0px;word-spacing:0px;text-anchor:start;fill:#005050;fill-opacity:1;stroke:none;stroke-width:1.39089084;"
       x="-416.78406"
       y="99.982262"
       id="text2472"><tspan
         sodipodi:role="line"
         id="tspan2470"
         x="-416.78406"
         y="99.982262"
         style="font-style:normal;font-variant:normal;font-weight:normal;font-stretch:normal;font-family:'Big John';-inkscape-font-specification:'Big John';text-align:center;text-anchor:middle;stroke-width:1.39089084;fill:#005050;fill-opacity:1;">AL-QUR'AN</tspan></text>
    <path
       style="color:#000000;font-style:normal;font-variant:normal;font-weight:normal;font-stretch:normal;font-size:8.4607687px;line-height:1.25;font-family:sans-serif;font-variant-ligatures:normal;font-variant-position:normal;font-variant-caps:normal;font-variant-numeric:normal;font-variant-alternates:normal;font-feature-settings:normal;text-indent:0;text-align:start;text-decoration:none;text-decoration-line:none;text-decoration-style:solid;text-decoration-color:#000000;letter-spacing:0px;word-spacing:0px;text-transform:none;writing-mode:lr-tb;direction:ltr;text-orientation:mixed;dominant-baseline:auto;baseline-shift:baseline;text-anchor:start;white-space:normal;shape-padding:0;clip-rule:nonzero;display:inline;overflow:visible;visibility:visible;opacity:1;isolation:auto;mix-blend-mode:normal;color-interpolation:sRGB;color-interpolation-filters:linearRGB;solid-color:#000000;solid-opacity:1;vector-effect:none;fill:#e3ffff;fill-opacity:1;fill-rule:nonzero;stroke:none;stroke-width:5.74770308;stroke-linecap:round;stroke-linejoin:round;stroke-miterlimit:4;stroke-dasharray:none;stroke-dashoffset:0;stroke-opacity:1;color-rendering:auto;image-rendering:auto;shape-rendering:auto;text-rendering:auto;enable-background:accumulate"
       d="M -1645.3867 397.10156 A 2.874139 2.874139 0 0 0 -1647.9922 401.17578 L -1636.9258 425.16016 A 2.874139 2.874139 0 0 0 -1634.3203 426.82812 L -1629.7812 426.82812 A 2.874139 2.874139 0 0 0 -1627.1758 425.16797 L -1625.8027 422.21484 L -1624.4219 425.17383 A 2.874139 2.874139 0 0 0 -1621.8164 426.82812 L -1617.2754 426.82812 A 2.874139 2.874139 0 0 0 -1614.6699 425.16016 L -1603.5762 401.18359 A 2.874139 2.874139 0 0 0 -1606.1816 397.10156 L -1613.0898 397.10156 A 2.874139 2.874139 0 0 0 -1615.6973 398.76172 L -1619.8828 407.79102 L -1621.8594 403.47852 A 2.874139 2.874139 0 0 0 -1624.4727 401.80273 L -1627.123 401.80273 A 2.874139 2.874139 0 0 0 -1629.7363 403.47852 L -1631.707 407.77539 L -1635.8711 398.76953 A 2.874139 2.874139 0 0 0 -1638.4766 397.10156 L -1645.3867 397.10156 z M -1596.082 397.10156 A 2.874139 2.874139 0 0 0 -1598.6895 398.75586 L -1609.8789 422.73828 A 2.874139 2.874139 0 0 0 -1607.2734 426.82812 L -1600.9766 426.82812 A 2.874139 2.874139 0 0 0 -1598.3633 425.15234 L -1597.6914 423.69922 L -1591.543 423.69922 L -1590.8496 425.17383 A 2.874139 2.874139 0 0 0 -1588.25 426.82812 L -1581.9473 426.82812 A 2.874139 2.874139 0 0 0 -1580.3516 426.34766 A 2.874139 2.874139 0 0 0 -1578.7578 426.82812 L -1572.4609 426.82812 A 2.874139 2.874139 0 0 0 -1569.582 423.95703 L -1569.582 421.54297 L -1567.3301 425.4043 A 2.874139 2.874139 0 0 0 -1564.8496 426.82812 L -1557.5859 426.82812 A 2.874139 2.874139 0 0 0 -1556.0293 426.37109 A 2.874139 2.874139 0 0 0 -1554.4629 426.82812 L -1548.1602 426.82812 A 2.874139 2.874139 0 0 0 -1545.2871 423.95703 L -1545.2871 419.55664 L -1538.873 425.98633 A 2.874139 2.874139 0 0 0 -1536.8438 426.82812 L -1534.252 426.82812 A 2.874139 2.874139 0 0 0 -1532.6348 426.33398 A 2.874139 2.874139 0 0 0 -1531.0195 426.82812 L -1524.7148 426.82812 A 2.874139 2.874139 0 0 0 -1522.1016 425.15234 L -1521.4375 423.69922 L -1515.2871 423.69922 L -1514.5859 425.17383 A 2.874139 2.874139 0 0 0 -1511.9883 426.82812 L -1505.6914 426.82812 A 2.874139 2.874139 0 0 0 -1503.0859 422.73047 L -1514.3809 398.74805 A 2.874139 2.874139 0 0 0 -1516.9785 397.10156 L -1519.8203 397.10156 A 2.874139 2.874139 0 0 0 -1522.4258 398.75586 L -1531.3809 417.94727 L -1531.3809 399.97266 A 2.874139 2.874139 0 0 0 -1534.252 397.10156 L -1540.5488 397.10156 A 2.874139 2.874139 0 0 0 -1543.4277 399.97266 L -1543.4277 404.36523 L -1549.8711 397.93555 A 2.874139 2.874139 0 0 0 -1551.9023 397.10156 L -1554.4629 397.10156 A 2.874139 2.874139 0 0 0 -1557.3359 399.97266 L -1557.3359 407.87891 C -1557.8802 401.9472 -1562.5875 397.10156 -1568.6523 397.10156 L -1578.7578 397.10156 A 2.874139 2.874139 0 0 0 -1581.6289 399.97266 L -1581.6289 417.88086 L -1590.6348 398.74805 A 2.874139 2.874139 0 0 0 -1593.2324 397.10156 L -1596.082 397.10156 z "
       transform="scale(0.26458333)"
       id="path2559" />
    <text
       id="text2484"
       y="112.17191"
       x="-416.80246"
       style="font-style:normal;font-weight:normal;font-size:8.4607687px;line-height:1.25;font-family:sans-serif;text-align:start;letter-spacing:0px;word-spacing:0px;text-anchor:start;fill:#00b2b2;fill-opacity:1;stroke:none;stroke-width:1.05759609"
       xml:space="preserve"><tspan
         style="font-style:normal;font-variant:normal;font-weight:normal;font-stretch:normal;font-family:'Big John';-inkscape-font-specification:'Big John';text-align:center;text-anchor:middle;fill:#00b2b2;fill-opacity:1;stroke-width:1.05759609"
         y="112.17191"
         x="-416.80246"
         id="tspan2482"
         sodipodi:role="line">WARNA</tspan></text>
  </g>
</svg>
