<?xml version="1.0" encoding="UTF-8" standalone="no"?>
<!-- Created with Inkscape (http://www.inkscape.org/) -->

<svg
   xmlns:dc="http://purl.org/dc/elements/1.1/"
   xmlns:cc="http://creativecommons.org/ns#"
   xmlns:rdf="http://www.w3.org/1999/02/22-rdf-syntax-ns#"
   xmlns:svg="http://www.w3.org/2000/svg"
   xmlns="http://www.w3.org/2000/svg"
   xmlns:sodipodi="http://sodipodi.sourceforge.net/DTD/sodipodi-0.dtd"
   xmlns:inkscape="http://www.inkscape.org/namespaces/inkscape"
   width="135.46666mm"
   height="135.46666mm"
   viewBox="0 0 135.46666 135.46666"
   version="1.1"
   id="svg1471"
   inkscape:version="0.92.3 (2405546, 2018-03-11)"
   sodipodi:docname="icon-transaction.svg">
  <defs
     id="defs1465" />
  <sodipodi:namedview
     id="base"
     pagecolor="#ffffff"
     bordercolor="#666666"
     borderopacity="1.0"
     inkscape:pageopacity="0.0"
     inkscape:pageshadow="2"
     inkscape:zoom="0.7546875"
     inkscape:cx="289.88306"
     inkscape:cy="223.24193"
     inkscape:document-units="mm"
     inkscape:current-layer="layer1"
     showgrid="false"
     showguides="true"
     inkscape:guide-bbox="true"
     inkscape:snap-global="false"
     inkscape:window-width="1366"
     inkscape:window-height="718"
     inkscape:window-x="0"
     inkscape:window-y="24"
     inkscape:window-maximized="1" />
  <metadata
     id="metadata1468">
    <rdf:RDF>
      <cc:Work
         rdf:about="">
        <dc:format>image/svg+xml</dc:format>
        <dc:type
           rdf:resource="http://purl.org/dc/dcmitype/StillImage" />
        <dc:title></dc:title>
      </cc:Work>
    </rdf:RDF>
  </metadata>
  <g
     inkscape:label="Layer 1"
     inkscape:groupmode="layer"
     id="layer1"
     transform="translate(67.559731,-13.210592)">
    <rect
       style="opacity:1;fill:none;fill-opacity:1;stroke:none;stroke-width:4.95710135;stroke-linecap:round;stroke-linejoin:round;stroke-miterlimit:4;stroke-dasharray:none;stroke-dashoffset:0;stroke-opacity:1;paint-order:normal"
       id="rect3458"
       width="135.46666"
       height="135.46666"
       x="-67.559731"
       y="13.210592"
       ry="2.2104046" />
    <g
       id="text3437"
       style="font-style:normal;font-weight:normal;font-size:3.49778676px;line-height:1.25;font-family:sans-serif;text-align:center;letter-spacing:0px;word-spacing:0px;text-anchor:middle;fill:#42b9d6;fill-opacity:1;stroke:none;stroke-width:0.43722335"
       aria-label="BILL"
       transform="matrix(7.6826025,0,0,7.6826025,451.47483,-993.551)">
      <g
         id="g3515"
         transform="translate(-41.740369,-12.508982)">
        <path
           sodipodi:nodetypes="sssssssss"
           inkscape:connector-curvature="0"
           id="rect3401"
           d="m -24.126,146.12471 h 12.141812 c 0.10849,0 0.19583,0.0873 0.19583,0.19583 v 12.09799 c 0,0.10849 -0.08734,0.19583 -0.19583,0.19583 h -11.026253 c -0.787416,0 -1.311389,-0.831 -1.311389,-1.40435 v -10.88947 c 0,-0.10849 0.08734,-0.19583 0.19583,-0.19583 z"
           style="opacity:1;fill:none;fill-opacity:1;stroke:#2f495c;stroke-width:0.79374999;stroke-linecap:round;stroke-linejoin:round;stroke-miterlimit:4;stroke-dasharray:none;stroke-dashoffset:0;stroke-opacity:1;paint-order:normal" />
        <path
           inkscape:connector-curvature="0"
           id="path3404"
           d="m -11.788145,148.53523 v 9.88311 c 0,0.10849 -0.08736,0.19586 -0.195855,0.19586 h 1.424205 c 0.524811,0 0.8748814,-0.50366 0.8748814,-1.07229 v -8.81135 c 0,-0.10853 -0.08737,-0.19533 -0.195855,-0.19533 z"
           style="opacity:1;fill:#42b9d6;fill-opacity:1;stroke:none;stroke-width:0.79374999;stroke-linecap:round;stroke-linejoin:round;stroke-miterlimit:4;stroke-dasharray:none;stroke-dashoffset:0;stroke-opacity:1;paint-order:normal" />
        <path
           inkscape:connector-curvature="0"
           id="path3495"
           d="m -11.789062,148.13867 a 0.39691468,0.39691468 0 0 0 -0.396485,0.39649 v 9.88281 c 0,-0.10456 0.0966,-0.20117 0.201172,-0.20117 v 0.79492 h 1.423828 c 0.389366,0 0.7340046,-0.19968 0.9492189,-0.47656 0.2152142,-0.27689 0.3242187,-0.62839 0.3242187,-0.99414 v -8.81055 c 0,-0.32153 -0.273569,-0.5918 -0.59375,-0.5918 z m 0.398437,0.79297 h 1.308594 v 8.60938 c 0,0.20287 -0.06523,0.38875 -0.15625,0.50586 -0.09102,0.1171 -0.18682,0.16992 -0.322266,0.16992 h -0.830078 z"
           style="color:#000000;font-style:normal;font-variant:normal;font-weight:normal;font-stretch:normal;font-size:medium;line-height:normal;font-family:sans-serif;font-variant-ligatures:normal;font-variant-position:normal;font-variant-caps:normal;font-variant-numeric:normal;font-variant-alternates:normal;font-feature-settings:normal;text-indent:0;text-align:start;text-decoration:none;text-decoration-line:none;text-decoration-style:solid;text-decoration-color:#000000;letter-spacing:normal;word-spacing:normal;text-transform:none;writing-mode:lr-tb;direction:ltr;text-orientation:mixed;dominant-baseline:auto;baseline-shift:baseline;text-anchor:start;white-space:normal;shape-padding:0;clip-rule:nonzero;display:inline;overflow:visible;visibility:visible;opacity:1;isolation:auto;mix-blend-mode:normal;color-interpolation:sRGB;color-interpolation-filters:linearRGB;solid-color:#000000;solid-opacity:1;vector-effect:none;fill:#2f495c;fill-opacity:1;fill-rule:nonzero;stroke:none;stroke-width:0.79374999;stroke-linecap:round;stroke-linejoin:round;stroke-miterlimit:4;stroke-dasharray:none;stroke-dashoffset:0;stroke-opacity:1;paint-order:normal;color-rendering:auto;image-rendering:auto;shape-rendering:auto;text-rendering:auto;enable-background:accumulate" />
        <path
           style="opacity:1;fill:#42b9d6;fill-opacity:1;stroke:none;stroke-width:0.65324569;stroke-linecap:round;stroke-linejoin:round;stroke-miterlimit:4;stroke-dasharray:none;stroke-dashoffset:0;stroke-opacity:1;paint-order:normal"
           d="m -21.791545,151.94872 h 7.472896 c 0.196081,0 0.353938,0.15785 0.353938,0.35393 0,0.19608 -0.157857,0.35394 -0.353938,0.35394 h -7.472896 c -0.196082,0 -0.353938,-0.15786 -0.353938,-0.35394 0,-0.19608 0.157856,-0.35393 0.353938,-0.35393 z"
           id="rect3414"
           inkscape:connector-curvature="0" />
        <path
           style="opacity:1;fill:#42b9d6;fill-opacity:1;stroke:none;stroke-width:0.65324569;stroke-linecap:round;stroke-linejoin:round;stroke-miterlimit:4;stroke-dasharray:none;stroke-dashoffset:0;stroke-opacity:1;paint-order:normal"
           d="m -21.791545,153.98706 h 7.472896 c 0.196081,0 0.353938,0.15786 0.353938,0.35394 0,0.19608 -0.157857,0.35394 -0.353938,0.35394 h -7.472896 c -0.196082,0 -0.353938,-0.15786 -0.353938,-0.35394 0,-0.19608 0.157856,-0.35394 0.353938,-0.35394 z"
           id="rect3431"
           inkscape:connector-curvature="0" />
        <path
           style="opacity:1;fill:#42b9d6;fill-opacity:1;stroke:none;stroke-width:0.65324569;stroke-linecap:round;stroke-linejoin:round;stroke-miterlimit:4;stroke-dasharray:none;stroke-dashoffset:0;stroke-opacity:1;paint-order:normal"
           d="m -21.791545,156.02541 h 7.472896 c 0.196081,0 0.353938,0.15785 0.353938,0.35393 0,0.19609 -0.157857,0.35394 -0.353938,0.35394 h -7.472896 c -0.196082,0 -0.353938,-0.15785 -0.353938,-0.35394 0,-0.19608 0.157856,-0.35393 0.353938,-0.35393 z"
           id="rect3433"
           inkscape:connector-curvature="0" />
        <path
           d="m -21.440162,150.61246 v -2.48671 h 0.840289 q 0.438931,0 0.684869,0.17079 0.245938,0.17079 0.245938,0.51066 0,0.1725 -0.09223,0.30913 -0.09052,0.13493 -0.264725,0.20324 0.223735,0.0478 0.334749,0.20495 0.112721,0.15713 0.112721,0.36379 0,0.35695 -0.23569,0.5414 -0.235691,0.18275 -0.667791,0.18275 z m 0.498708,-1.09989 v 0.71732 h 0.459426 q 0.198117,0 0.302299,-0.0854 0.104182,-0.0871 0.104182,-0.25618 0,-0.18275 -0.08881,-0.27839 -0.08881,-0.0973 -0.280096,-0.0973 z m 0,-0.345 h 0.35866 q 0.199825,0 0.307423,-0.082 0.107598,-0.082 0.107598,-0.23911 0,-0.17249 -0.109306,-0.25447 -0.107598,-0.082 -0.322794,-0.082 h -0.341581 z"
           style="font-style:normal;font-variant:normal;font-weight:bold;font-stretch:normal;font-family:Roboto;-inkscape-font-specification:'Roboto Bold';fill:#42b9d6;fill-opacity:1;stroke-width:0.43722335"
           id="path3472"
           inkscape:connector-curvature="0" />
        <path
           d="m -18.66311,150.61246 h -0.498708 v -2.48671 h 0.498708 z"
           style="font-style:normal;font-variant:normal;font-weight:bold;font-stretch:normal;font-family:Roboto;-inkscape-font-specification:'Roboto Bold';fill:#42b9d6;fill-opacity:1;stroke-width:0.43722335"
           id="path3474"
           inkscape:connector-curvature="0" />
        <path
           d="m -17.66911,150.22989 h 1.106721 v 0.38257 h -1.605429 v -2.48671 h 0.498708 z"
           style="font-style:normal;font-variant:normal;font-weight:bold;font-stretch:normal;font-family:Roboto;-inkscape-font-specification:'Roboto Bold';fill:#42b9d6;fill-opacity:1;stroke-width:0.43722335"
           id="path3476"
           inkscape:connector-curvature="0" />
        <path
           d="m -15.776753,150.22989 h 1.106722 v 0.38257 h -1.60543 v -2.48671 h 0.498708 z"
           style="font-style:normal;font-variant:normal;font-weight:bold;font-stretch:normal;font-family:Roboto;-inkscape-font-specification:'Roboto Bold';fill:#42b9d6;fill-opacity:1;stroke-width:0.43722335"
           id="path3478"
           inkscape:connector-curvature="0" />
      </g>
    </g>
  </g>
</svg>
