<?xml version="1.0" encoding="UTF-8" standalone="no"?>
<!-- Created with Inkscape (http://www.inkscape.org/) -->

<svg
   xmlns:dc="http://purl.org/dc/elements/1.1/"
   xmlns:cc="http://creativecommons.org/ns#"
   xmlns:rdf="http://www.w3.org/1999/02/22-rdf-syntax-ns#"
   xmlns:svg="http://www.w3.org/2000/svg"
   xmlns="http://www.w3.org/2000/svg"
   xmlns:sodipodi="http://sodipodi.sourceforge.net/DTD/sodipodi-0.dtd"
   xmlns:inkscape="http://www.inkscape.org/namespaces/inkscape"
   width="80.585297mm"
   height="80.585297mm"
   viewBox="0 0 80.585297 80.585297"
   version="1.1"
   id="svg8"
   inkscape:version="0.92.3 (2405546, 2018-03-11)"
   sodipodi:docname="open-lock.svg">
  <defs
     id="defs2" />
  <sodipodi:namedview
     id="base"
     pagecolor="#ffffff"
     bordercolor="#666666"
     borderopacity="1.0"
     inkscape:pageopacity="0.0"
     inkscape:pageshadow="2"
     inkscape:zoom="0.7546875"
     inkscape:cx="38.867159"
     inkscape:cy="248.1518"
     inkscape:document-units="mm"
     inkscape:current-layer="layer1"
     showgrid="false"
     inkscape:window-width="1366"
     inkscape:window-height="718"
     inkscape:window-x="0"
     inkscape:window-y="24"
     inkscape:window-maximized="1"
     inkscape:snap-global="false" />
  <metadata
     id="metadata5">
    <rdf:RDF>
      <cc:Work
         rdf:about="">
        <dc:format>image/svg+xml</dc:format>
        <dc:type
           rdf:resource="http://purl.org/dc/dcmitype/StillImage" />
        <dc:title></dc:title>
      </cc:Work>
    </rdf:RDF>
  </metadata>
  <g
     inkscape:label="Layer 1"
     inkscape:groupmode="layer"
     id="layer1"
     transform="translate(81.44441,-128.29402)">
    <path
       style="color:#000000;font-style:normal;font-variant:normal;font-weight:normal;font-stretch:normal;font-size:medium;line-height:normal;font-family:sans-serif;font-variant-ligatures:normal;font-variant-position:normal;font-variant-caps:normal;font-variant-numeric:normal;font-variant-alternates:normal;font-feature-settings:normal;text-indent:0;text-align:start;text-decoration:none;text-decoration-line:none;text-decoration-style:solid;text-decoration-color:#000000;letter-spacing:normal;word-spacing:normal;text-transform:none;writing-mode:lr-tb;direction:ltr;text-orientation:mixed;dominant-baseline:auto;baseline-shift:baseline;text-anchor:start;white-space:normal;shape-padding:0;clip-rule:nonzero;display:inline;overflow:visible;visibility:visible;opacity:1;isolation:auto;mix-blend-mode:normal;color-interpolation:sRGB;color-interpolation-filters:linearRGB;solid-color:#000000;solid-opacity:1;vector-effect:none;fill:#1eb8fb;fill-opacity:1;fill-rule:nonzero;stroke:none;stroke-width:1;stroke-linecap:round;stroke-linejoin:round;stroke-miterlimit:4;stroke-dasharray:none;stroke-dashoffset:0;stroke-opacity:1;paint-order:markers stroke fill;color-rendering:auto;image-rendering:auto;shape-rendering:auto;text-rendering:auto;enable-background:accumulate"
       d="m -41.735253,145.42709 c -8.328747,0 -15.109155,6.78105 -15.109155,15.10967 v 14.46061 a 0.50005001,0.50005001 0 0 0 0.500229,0.50023 h 4.245734 a 0.50005001,0.50005001 0 0 0 0.500229,-0.50023 v -14.46061 c 0,-5.51472 4.348377,-9.86348 9.862963,-9.86348 5.514589,0 9.863476,4.34889 9.863482,9.86348 v 3.11919 c 2.22e-4,1.37459 1.125516,2.49988 2.500106,2.50011 h 0.24598 c 1.37459,-2.3e-4 2.499884,-1.12552 2.500106,-2.50011 v -3.11919 c 0,-8.32874 -6.780929,-15.10967 -15.109674,-15.10967 z m 0,1.00045 c 7.786677,0 14.109218,6.32254 14.109216,14.10922 v 3.11919 c -1.32e-4,0.83427 -0.665385,1.49952 -1.499648,1.49965 h -0.24598 c -0.834266,-1.3e-4 -1.499516,-0.66538 -1.499651,-1.49965 v -3.11919 c -5e-6,-6.04347 -4.820462,-10.86394 -10.863937,-10.86394 -6.043461,0 -10.863418,4.8204 -10.863418,10.86394 v 13.96039 h -3.245282 v -13.96039 c 0,-7.78659 6.322029,-14.10922 14.1087,-14.10922 z"
       id="rect845"
       inkscape:connector-curvature="0" />
    <path
       style="color:#000000;font-style:normal;font-variant:normal;font-weight:normal;font-stretch:normal;font-size:medium;line-height:normal;font-family:sans-serif;font-variant-ligatures:normal;font-variant-position:normal;font-variant-caps:normal;font-variant-numeric:normal;font-variant-alternates:normal;font-feature-settings:normal;text-indent:0;text-align:start;text-decoration:none;text-decoration-line:none;text-decoration-style:solid;text-decoration-color:#000000;letter-spacing:normal;word-spacing:normal;text-transform:none;writing-mode:lr-tb;direction:ltr;text-orientation:mixed;dominant-baseline:auto;baseline-shift:baseline;text-anchor:start;white-space:normal;shape-padding:0;clip-rule:nonzero;display:inline;overflow:visible;visibility:visible;opacity:1;isolation:auto;mix-blend-mode:normal;color-interpolation:sRGB;color-interpolation-filters:linearRGB;solid-color:#000000;solid-opacity:1;vector-effect:none;fill:#2b465b;fill-opacity:1;fill-rule:nonzero;stroke:none;stroke-width:1;stroke-linecap:round;stroke-linejoin:round;stroke-miterlimit:4;stroke-dasharray:none;stroke-dashoffset:0;stroke-opacity:1;paint-order:normal;color-rendering:auto;image-rendering:auto;shape-rendering:auto;text-rendering:auto;enable-background:accumulate"
       d="m -60.676523,174.4975 c -0.435703,0 -0.802735,0.36703 -0.802735,0.80273 v 22.32618 c 0,0.4357 0.367032,0.80273 0.802735,0.80273 h 37.882812 c 0.435703,0 0.800781,-0.36703 0.800781,-0.80273 v -22.32618 c 0,-0.4357 -0.365078,-0.80273 -0.800781,-0.80273 z m 0.197265,1 h 37.486328 v 21.93164 h -37.486328 z"
       id="rect847"
       inkscape:connector-curvature="0" />
    <path
       style="color:#000000;font-style:normal;font-variant:normal;font-weight:normal;font-stretch:normal;font-size:medium;line-height:normal;font-family:sans-serif;font-variant-ligatures:normal;font-variant-position:normal;font-variant-caps:normal;font-variant-numeric:normal;font-variant-alternates:normal;font-feature-settings:normal;text-indent:0;text-align:start;text-decoration:none;text-decoration-line:none;text-decoration-style:solid;text-decoration-color:#000000;letter-spacing:normal;word-spacing:normal;text-transform:none;writing-mode:lr-tb;direction:ltr;text-orientation:mixed;dominant-baseline:auto;baseline-shift:baseline;text-anchor:start;white-space:normal;shape-padding:0;clip-rule:nonzero;display:inline;overflow:visible;visibility:visible;opacity:1;isolation:auto;mix-blend-mode:normal;color-interpolation:sRGB;color-interpolation-filters:linearRGB;solid-color:#000000;solid-opacity:1;vector-effect:none;fill:#2a4256;fill-opacity:1;fill-rule:nonzero;stroke:none;stroke-width:1;stroke-linecap:round;stroke-linejoin:round;stroke-miterlimit:4;stroke-dasharray:none;stroke-dashoffset:0;stroke-opacity:1;paint-order:markers stroke fill;color-rendering:auto;image-rendering:auto;shape-rendering:auto;text-rendering:auto;enable-background:accumulate"
       d="m -60.978523,193.95746 a 0.50005001,0.50005001 0 0 0 -0.500226,0.50023 v 3.16931 c 0,0.43513 0.365858,0.80254 0.802018,0.80254 h 37.88244 c 0.436161,0 0.802537,-0.36638 0.802537,-0.80254 v -3.16931 a 0.50005001,0.50005001 0 0 0 -0.500229,-0.50023 z m 0.500229,1.00045 h 37.486085 v 2.47117 h -37.486085 z"
       id="rect860"
       inkscape:connector-curvature="0" />
    <path
       style="color:#000000;font-style:normal;font-variant:normal;font-weight:normal;font-stretch:normal;font-size:medium;line-height:normal;font-family:sans-serif;font-variant-ligatures:normal;font-variant-position:normal;font-variant-caps:normal;font-variant-numeric:normal;font-variant-alternates:normal;font-feature-settings:normal;text-indent:0;text-align:start;text-decoration:none;text-decoration-line:none;text-decoration-style:solid;text-decoration-color:#000000;letter-spacing:normal;word-spacing:normal;text-transform:none;writing-mode:lr-tb;direction:ltr;text-orientation:mixed;dominant-baseline:auto;baseline-shift:baseline;text-anchor:start;white-space:normal;shape-padding:0;clip-rule:nonzero;display:inline;overflow:visible;visibility:visible;opacity:1;isolation:auto;mix-blend-mode:normal;color-interpolation:sRGB;color-interpolation-filters:linearRGB;solid-color:#000000;solid-opacity:1;vector-effect:none;fill:#1eb8fb;fill-opacity:1;fill-rule:nonzero;stroke:none;stroke-width:1;stroke-linecap:round;stroke-linejoin:round;stroke-miterlimit:4;stroke-dasharray:none;stroke-dashoffset:0;stroke-opacity:1;paint-order:markers stroke fill;color-rendering:auto;image-rendering:auto;shape-rendering:auto;text-rendering:auto;enable-background:accumulate"
       d="m -41.735253,180.2291 c -1.502442,-1.8e-4 -2.731447,1.22865 -2.731616,2.7311 a 0.50005001,0.50005001 0 0 0 0,5.1e-4 c 0.0011,0.76746 0.339251,1.48292 0.898654,1.99626 v 4.20078 c 0,1.00666 0.826305,1.83296 1.832962,1.83296 1.00666,0 1.832446,-0.82653 1.832446,-1.83296 v -4.20026 c 0.559533,-0.51348 0.897771,-1.22912 0.898655,-1.99678 a 0.50005001,0.50005001 0 0 0 0,-5.1e-4 c -1.67e-4,-1.5022 -1.2289,-2.73094 -2.731101,-2.7311 z m 0,1.00045 c 0.961663,1.1e-4 1.730256,0.76854 1.730645,1.73013 -6.3e-4,0.54674 -0.258585,1.05995 -0.697116,1.38648 a 0.50005001,0.50005001 0 0 0 -0.201539,0.40101 v 4.41058 c 0,0.46996 -0.362264,0.83251 -0.83199,0.83251 -0.46972,0 -0.832506,-0.36278 -0.832506,-0.83251 v -4.4111 a 0.50005001,0.50005001 0 0 0 -0.201538,-0.40101 c -0.43828,-0.32633 -0.696199,-0.83903 -0.697117,-1.38544 v -5.2e-4 c 3.92e-4,-0.96175 0.76934,-1.73024 1.731161,-1.73013 z"
       id="path865"
       inkscape:connector-curvature="0" />
    <path
       style="color:#000000;font-style:normal;font-variant:normal;font-weight:normal;font-stretch:normal;font-size:medium;line-height:normal;font-family:sans-serif;font-variant-ligatures:normal;font-variant-position:normal;font-variant-caps:normal;font-variant-numeric:normal;font-variant-alternates:normal;font-feature-settings:normal;text-indent:0;text-align:start;text-decoration:none;text-decoration-line:none;text-decoration-style:solid;text-decoration-color:#000000;letter-spacing:normal;word-spacing:normal;text-transform:none;writing-mode:lr-tb;direction:ltr;text-orientation:mixed;dominant-baseline:auto;baseline-shift:baseline;text-anchor:start;white-space:normal;shape-padding:0;clip-rule:nonzero;display:inline;overflow:visible;visibility:visible;opacity:1;isolation:auto;mix-blend-mode:normal;color-interpolation:sRGB;color-interpolation-filters:linearRGB;solid-color:#000000;solid-opacity:1;vector-effect:none;fill:#2b465b;fill-opacity:1;fill-rule:nonzero;stroke:none;stroke-width:1;stroke-linecap:round;stroke-linejoin:round;stroke-miterlimit:4;stroke-dasharray:none;stroke-dashoffset:0;stroke-opacity:1;color-rendering:auto;image-rendering:auto;shape-rendering:auto;text-rendering:auto;enable-background:accumulate"
       d="m -60.76832,180.97211 a 0.50005,0.50005 0 1 0 0,1 h 12.240234 a 0.50005,0.50005 0 1 0 0,-1 z"
       id="path878"
       inkscape:connector-curvature="0" />
    <path
       inkscape:connector-curvature="0"
       id="path882"
       d="m -60.76832,185.0625 c -0.676161,-0.01 -0.676161,1.00956 0,1 h 4.92712 c 0.676161,0.01 0.676161,-1.00956 0,-1 z"
       style="color:#000000;font-style:normal;font-variant:normal;font-weight:normal;font-stretch:normal;font-size:medium;line-height:normal;font-family:sans-serif;font-variant-ligatures:normal;font-variant-position:normal;font-variant-caps:normal;font-variant-numeric:normal;font-variant-alternates:normal;font-feature-settings:normal;text-indent:0;text-align:start;text-decoration:none;text-decoration-line:none;text-decoration-style:solid;text-decoration-color:#000000;letter-spacing:normal;word-spacing:normal;text-transform:none;writing-mode:lr-tb;direction:ltr;text-orientation:mixed;dominant-baseline:auto;baseline-shift:baseline;text-anchor:start;white-space:normal;shape-padding:0;clip-rule:nonzero;display:inline;overflow:visible;visibility:visible;opacity:1;isolation:auto;mix-blend-mode:normal;color-interpolation:sRGB;color-interpolation-filters:linearRGB;solid-color:#000000;solid-opacity:1;vector-effect:none;fill:#2b465b;fill-opacity:1;fill-rule:nonzero;stroke:none;stroke-width:1;stroke-linecap:round;stroke-linejoin:round;stroke-miterlimit:4;stroke-dasharray:none;stroke-dashoffset:0;stroke-opacity:1;color-rendering:auto;image-rendering:auto;shape-rendering:auto;text-rendering:auto;enable-background:accumulate"
       sodipodi:nodetypes="ccccc" />
    <path
       inkscape:connector-curvature="0"
       id="path884"
       d="m -35.000204,180.97211 a 0.50005,0.50005 0 1 0 0,1 h 12.240234 a 0.50005,0.50005 0 1 0 0,-1 z"
       style="color:#000000;font-style:normal;font-variant:normal;font-weight:normal;font-stretch:normal;font-size:medium;line-height:normal;font-family:sans-serif;font-variant-ligatures:normal;font-variant-position:normal;font-variant-caps:normal;font-variant-numeric:normal;font-variant-alternates:normal;font-feature-settings:normal;text-indent:0;text-align:start;text-decoration:none;text-decoration-line:none;text-decoration-style:solid;text-decoration-color:#000000;letter-spacing:normal;word-spacing:normal;text-transform:none;writing-mode:lr-tb;direction:ltr;text-orientation:mixed;dominant-baseline:auto;baseline-shift:baseline;text-anchor:start;white-space:normal;shape-padding:0;clip-rule:nonzero;display:inline;overflow:visible;visibility:visible;opacity:1;isolation:auto;mix-blend-mode:normal;color-interpolation:sRGB;color-interpolation-filters:linearRGB;solid-color:#000000;solid-opacity:1;vector-effect:none;fill:#2b465b;fill-opacity:1;fill-rule:nonzero;stroke:none;stroke-width:1;stroke-linecap:round;stroke-linejoin:round;stroke-miterlimit:4;stroke-dasharray:none;stroke-dashoffset:0;stroke-opacity:1;color-rendering:auto;image-rendering:auto;shape-rendering:auto;text-rendering:auto;enable-background:accumulate" />
    <path
       sodipodi:nodetypes="ccccc"
       style="color:#000000;font-style:normal;font-variant:normal;font-weight:normal;font-stretch:normal;font-size:medium;line-height:normal;font-family:sans-serif;font-variant-ligatures:normal;font-variant-position:normal;font-variant-caps:normal;font-variant-numeric:normal;font-variant-alternates:normal;font-feature-settings:normal;text-indent:0;text-align:start;text-decoration:none;text-decoration-line:none;text-decoration-style:solid;text-decoration-color:#000000;letter-spacing:normal;word-spacing:normal;text-transform:none;writing-mode:lr-tb;direction:ltr;text-orientation:mixed;dominant-baseline:auto;baseline-shift:baseline;text-anchor:start;white-space:normal;shape-padding:0;clip-rule:nonzero;display:inline;overflow:visible;visibility:visible;opacity:1;isolation:auto;mix-blend-mode:normal;color-interpolation:sRGB;color-interpolation-filters:linearRGB;solid-color:#000000;solid-opacity:1;vector-effect:none;fill:#2b465b;fill-opacity:1;fill-rule:nonzero;stroke:none;stroke-width:1;stroke-linecap:round;stroke-linejoin:round;stroke-miterlimit:4;stroke-dasharray:none;stroke-dashoffset:0;stroke-opacity:1;color-rendering:auto;image-rendering:auto;shape-rendering:auto;text-rendering:auto;enable-background:accumulate"
       d="m -27.550239,185.0625 c -0.676161,-0.01 -0.676161,1.00956 0,1 h 4.92712 c 0.676161,0.01 0.676161,-1.00956 0,-1 z"
       id="path886"
       inkscape:connector-curvature="0" />
    <path
       inkscape:connector-curvature="0"
       style="opacity:1;fill:#2b465b;fill-opacity:1;stroke:none;stroke-width:1.53055143;stroke-linecap:round;stroke-linejoin:round;stroke-miterlimit:4;stroke-dasharray:none;stroke-dashoffset:0;stroke-opacity:1;paint-order:normal"
       d="m -67.013933,197.42913 h 45.496791 c 0.507071,0 0.915291,0.40822 0.915291,0.91529 0,0.50707 -0.40822,0.91529 -0.915291,0.91529 h -45.496791 c -0.507071,0 -0.915291,-0.40822 -0.915291,-0.91529 0,-0.50707 0.40822,-0.91529 0.915291,-0.91529 z"
       id="rect910" />
    <path
       inkscape:connector-curvature="0"
       style="opacity:1;fill:#2b465b;fill-opacity:1;stroke:none;stroke-width:1.53055143;stroke-linecap:round;stroke-linejoin:round;stroke-miterlimit:4;stroke-dasharray:none;stroke-dashoffset:0;stroke-opacity:1;paint-order:normal"
       d="m -18.902498,197.42913 h 5.273964 c 0.507071,0 0.91529,0.40822 0.91529,0.91529 0,0.50707 -0.408219,0.91529 -0.91529,0.91529 h -5.273964 c -0.507072,0 -0.915291,-0.40822 -0.915291,-0.91529 0,-0.50707 0.408219,-0.91529 0.915291,-0.91529 z"
       id="rect912" />
    <path
       inkscape:connector-curvature="0"
       style="opacity:1;fill:#1eb8fb;fill-opacity:1;stroke:none;stroke-width:1.53055143;stroke-linecap:round;stroke-linejoin:round;stroke-miterlimit:4;stroke-dasharray:none;stroke-dashoffset:0;stroke-opacity:1;paint-order:normal"
       d="m -11.076975,197.42913 h 0.006 c 0.507071,0 0.915291,0.40822 0.915291,0.91529 0,0.50707 -0.40822,0.91529 -0.915291,0.91529 h -0.006 c -0.507071,0 -0.915291,-0.40822 -0.915291,-0.91529 0,-0.50707 0.40822,-0.91529 0.915291,-0.91529 z"
       id="rect914" />
    <path
       inkscape:connector-curvature="0"
       style="opacity:1;fill:#1eb8fb;fill-opacity:1;stroke:none;stroke-width:1.53055143;stroke-linecap:round;stroke-linejoin:round;stroke-miterlimit:4;stroke-dasharray:none;stroke-dashoffset:0;stroke-opacity:1;paint-order:normal"
       d="m -71.943705,197.42913 h 2.23716 c 0.507072,0 0.915291,0.40822 0.915291,0.91529 0,0.50707 -0.408219,0.91529 -0.915291,0.91529 h -2.23716 c -0.507071,0 -0.915291,-0.40822 -0.915291,-0.91529 0,-0.50707 0.40822,-0.91529 0.915291,-0.91529 z"
       id="rect916" />
    <path
       inkscape:connector-curvature="0"
       style="opacity:1;fill:#2b465b;fill-opacity:1;stroke:none;stroke-width:1.53055143;stroke-linecap:round;stroke-linejoin:round;stroke-miterlimit:4;stroke-dasharray:none;stroke-dashoffset:0;stroke-opacity:1;paint-order:normal"
       d="m -74.696354,197.42913 h 0.0758 c 0.507071,0 0.915291,0.40822 0.915291,0.91529 0,0.50707 -0.40822,0.91529 -0.915291,0.91529 h -0.0758 c -0.507071,0 -0.915291,-0.40822 -0.915291,-0.91529 0,-0.50707 0.40822,-0.91529 0.915291,-0.91529 z"
       id="rect916-3" />
    <path
       style="opacity:1;fill:#1eb8fb;fill-opacity:1;stroke:none;stroke-width:5.78476143;stroke-linecap:round;stroke-linejoin:round;stroke-miterlimit:4;stroke-dasharray:none;stroke-dashoffset:0;stroke-opacity:1;paint-order:normal"
       d="M 140.33984 275.35156 C 139.16462 275.35156 138.2168 276.2994 138.2168 277.47461 L 138.2168 277.92383 C 138.2168 279.09907 139.16462 280.04492 140.33984 280.04492 L 192.00977 280.04492 C 193.18499 280.04492 194.13086 279.09907 194.13086 277.92383 L 194.13086 277.47461 C 194.13086 276.2994 193.18499 275.35156 192.00977 275.35156 L 140.33984 275.35156 z M 158.38477 280.04688 C 159.68487 280.04688 160.73047 281.09246 160.73047 282.39258 C 160.73047 283.69266 159.68487 284.74023 158.38477 284.74023 L 150.81445 284.74023 C 149.51437 284.74023 148.46875 285.78586 148.46875 287.08594 C 148.46875 288.38602 149.51437 289.43359 150.81445 289.43359 L 218.41797 289.43359 C 219.71805 289.43359 220.76562 288.38602 220.76562 287.08594 C 220.76562 285.78586 219.71805 284.74023 218.41797 284.74023 L 181.56836 284.74023 C 180.26826 284.74023 179.2207 283.69266 179.2207 282.39258 C 179.2207 281.09246 180.26826 280.04687 181.56836 280.04688 L 158.38477 280.04688 z "
       transform="matrix(0.26458333,0,0,0.26458333,-81.44441,128.29402)"
       id="rect933" />
    <path
       inkscape:connector-curvature="0"
       style="opacity:1;fill:#1eb8fb;fill-opacity:1;stroke:none;stroke-width:1.53055143;stroke-linecap:round;stroke-linejoin:round;stroke-miterlimit:4;stroke-dasharray:none;stroke-dashoffset:0;stroke-opacity:1;paint-order:normal"
       d="m -28.933664,201.14766 h 2.760249 c 0.343985,0 0.620911,0.27693 0.620911,0.62091 0,0.34399 -0.276926,0.62091 -0.620911,0.62091 h -2.760249 c -0.343985,0 -0.620911,-0.27692 -0.620911,-0.62091 0,-0.34398 0.276926,-0.62091 0.620911,-0.62091 z"
       id="rect945" />
    <path
       inkscape:connector-curvature="0"
       style="opacity:1;fill:#2b465b;fill-opacity:1;stroke:none;stroke-width:1.53055143;stroke-linecap:round;stroke-linejoin:round;stroke-miterlimit:4;stroke-dasharray:none;stroke-dashoffset:0;stroke-opacity:1;paint-order:normal"
       d="m -47.919371,201.14766 h 1.868101 c 0.343985,0 0.620911,0.27693 0.620911,0.62091 0,0.34399 -0.276926,0.62091 -0.620911,0.62091 h -1.868101 c -0.343984,0 -0.62091,-0.27692 -0.62091,-0.62091 0,-0.34398 0.276926,-0.62091 0.62091,-0.62091 z"
       id="rect947" />
    <path
       inkscape:connector-curvature="0"
       style="opacity:1;fill:#1eb8fb;fill-opacity:1;stroke:none;stroke-width:1.53055143;stroke-linecap:round;stroke-linejoin:round;stroke-miterlimit:4;stroke-dasharray:none;stroke-dashoffset:0;stroke-opacity:1;paint-order:normal"
       d="m -49.74166,201.14766 h 0.05954 c 0.311496,0 0.562267,0.26363 0.562267,0.59109 v 0.0597 c 0,0.32746 -0.250771,0.59109 -0.562267,0.59109 h -0.05954 c -0.311495,0 -0.562267,-0.26363 -0.562267,-0.59109 v -0.0597 c 0,-0.32746 0.250772,-0.59109 0.562267,-0.59109 z"
       id="rect949" />
    <path
       inkscape:connector-curvature="0"
       style="opacity:1;fill:#1eb8fb;fill-opacity:1;stroke:none;stroke-width:1.53055143;stroke-linecap:round;stroke-linejoin:round;stroke-miterlimit:4;stroke-dasharray:none;stroke-dashoffset:0;stroke-opacity:1;paint-order:normal"
       d="m -46.024763,203.63129 h 2.760249 c 0.343985,0 0.620911,0.27693 0.620911,0.62091 0,0.34398 -0.276926,0.62091 -0.620911,0.62091 h -2.760249 c -0.343985,0 -0.620911,-0.27693 -0.620911,-0.62091 0,-0.34398 0.276926,-0.62091 0.620911,-0.62091 z"
       id="rect951" />
    <path
       inkscape:connector-curvature="0"
       style="opacity:1;fill:#2b465b;fill-opacity:1;stroke:none;stroke-width:1.53055143;stroke-linecap:round;stroke-linejoin:round;stroke-miterlimit:4;stroke-dasharray:none;stroke-dashoffset:0;stroke-opacity:1;paint-order:normal"
       d="m -20.11857,203.6313 h -1.868102 c -0.343984,0 -0.62091,0.27693 -0.62091,0.62091 0,0.34399 0.276926,0.62092 0.62091,0.62092 h 1.868102 c 0.343984,0 0.62091,-0.27693 0.62091,-0.62092 0,-0.34398 -0.276926,-0.62091 -0.62091,-0.62091 z"
       id="rect953" />
    <path
       inkscape:connector-curvature="0"
       style="opacity:1;fill:#1eb8fb;fill-opacity:1;stroke:none;stroke-width:1.53055143;stroke-linecap:round;stroke-linejoin:round;stroke-miterlimit:4;stroke-dasharray:none;stroke-dashoffset:0;stroke-opacity:1;paint-order:normal"
       d="m -18.296286,203.63129 h -0.05954 c -0.311496,0 -0.562268,0.26362 -0.562268,0.59109 v 0.0597 c 0,0.32746 0.250772,0.59109 0.562268,0.59109 h 0.05954 c 0.311496,0 0.562268,-0.26363 0.562268,-0.59109 v -0.0597 c 0,-0.32747 -0.250772,-0.59109 -0.562268,-0.59109 z"
       id="rect955" />
    <path
       inkscape:connector-curvature="0"
       style="opacity:1;fill:none;fill-opacity:1;stroke:#2b465b;stroke-width:0.23297675;stroke-linecap:round;stroke-linejoin:round;stroke-miterlimit:4;stroke-dasharray:none;stroke-dashoffset:0;stroke-opacity:1;paint-order:normal"
       d="m -43.494502,157.07015 a 0.64974874,0.64974874 0 0 1 -0.649749,0.64975 0.64974874,0.64974874 0 0 1 -0.649749,-0.64975 0.64974874,0.64974874 0 0 1 0.649749,-0.64975 0.64974874,0.64974874 0 0 1 0.649749,0.64975 z"
       id="path957" />
    <path
       inkscape:connector-curvature="0"
       style="opacity:1;fill:none;fill-opacity:1;stroke:#2b465b;stroke-width:0.23297675;stroke-linecap:round;stroke-linejoin:round;stroke-miterlimit:4;stroke-dasharray:none;stroke-dashoffset:0;stroke-opacity:1;paint-order:normal"
       d="m -61.555938,158.20806 a 0.64974874,0.64974874 0 0 1 -0.649749,0.64974 0.64974874,0.64974874 0 0 1 -0.649748,-0.64974 0.64974874,0.64974874 0 0 1 0.649748,-0.64975 0.64974874,0.64974874 0 0 1 0.649749,0.64975 z"
       id="circle959" />
    <path
       inkscape:connector-curvature="0"
       style="opacity:1;fill:none;fill-opacity:1;stroke:#2b465b;stroke-width:0.31292444;stroke-linecap:round;stroke-linejoin:round;stroke-miterlimit:4;stroke-dasharray:none;stroke-dashoffset:0;stroke-opacity:1;paint-order:normal"
       d="m -49.074679,139.16275 a 0.87271488,0.87271488 0 0 1 -0.872715,0.87272 0.87271488,0.87271488 0 0 1 -0.872714,-0.87272 0.87271488,0.87271488 0 0 1 0.872714,-0.87271 0.87271488,0.87271488 0 0 1 0.872715,0.87271 z"
       id="circle961" />
    <path
       inkscape:connector-curvature="0"
       style="opacity:1;fill:none;fill-opacity:1;stroke:#2b465b;stroke-width:0.31292444;stroke-linecap:round;stroke-linejoin:round;stroke-miterlimit:4;stroke-dasharray:none;stroke-dashoffset:0;stroke-opacity:1;paint-order:normal"
       d="m -21.714957,142.29782 a 0.87271488,0.87271488 0 0 1 -0.872714,0.87272 0.87271488,0.87271488 0 0 1 -0.872715,-0.87272 0.87271488,0.87271488 0 0 1 0.872715,-0.87271 0.87271488,0.87271488 0 0 1 0.872714,0.87271 z"
       id="circle963" />
    <path
       inkscape:connector-curvature="0"
       style="color:#000000;font-style:normal;font-variant:normal;font-weight:normal;font-stretch:normal;font-size:medium;line-height:normal;font-family:sans-serif;font-variant-ligatures:normal;font-variant-position:normal;font-variant-caps:normal;font-variant-numeric:normal;font-variant-alternates:normal;font-feature-settings:normal;text-indent:0;text-align:start;text-decoration:none;text-decoration-line:none;text-decoration-style:solid;text-decoration-color:#000000;letter-spacing:normal;word-spacing:normal;text-transform:none;writing-mode:lr-tb;direction:ltr;text-orientation:mixed;dominant-baseline:auto;baseline-shift:baseline;text-anchor:start;white-space:normal;shape-padding:0;clip-rule:nonzero;display:inline;overflow:visible;visibility:visible;opacity:1;isolation:auto;mix-blend-mode:normal;color-interpolation:sRGB;color-interpolation-filters:linearRGB;solid-color:#000000;solid-opacity:1;vector-effect:none;fill:#1eb8fb;fill-opacity:1;fill-rule:nonzero;stroke:none;stroke-width:0.26499999;stroke-linecap:round;stroke-linejoin:round;stroke-miterlimit:4;stroke-dasharray:none;stroke-dashoffset:0;stroke-opacity:1;color-rendering:auto;image-rendering:auto;shape-rendering:auto;text-rendering:auto;enable-background:accumulate"
       d="m -69.918784,170.4771 a 0.13251324,0.13251324 0 0 0 -0.01291,0.002 0.13251324,0.13251324 0 0 0 -0.09199,0.20102 l 0.463021,0.76481 -0.892453,-0.0186 a 0.13251324,0.13251324 0 0 0 -0.01394,0 0.13251324,0.13251324 0 0 0 0.0078,0.26355 l 0.904338,0.0186 -0.468707,0.77463 a 0.13251324,0.13251324 0 1 0 0.226859,0.13643 l 0.473358,-0.78238 0.473872,0.78238 a 0.13251324,0.13251324 0 1 0 0.226343,-0.13643 l -0.463021,-0.76481 0.892453,0.0186 a 0.13251324,0.13251324 0 1 0 0.0062,-0.26355 l -0.904335,-0.0186 0.468704,-0.77463 a 0.13251324,0.13251324 0 0 0 -0.122989,-0.20102 0.13251324,0.13251324 0 0 0 -0.103354,0.0641 l -0.473872,0.7829 -0.473874,-0.78238 a 0.13251324,0.13251324 0 0 0 -0.121438,-0.0662 z"
       id="path967" />
    <path
       id="path1271"
       d="m -67.590073,142.42271 a 0.06948887,0.06948887 0 0 0 -0.0068,0.001 0.06948887,0.06948887 0 0 0 -0.04823,0.10541 l 0.242805,0.40106 -0.467995,-0.01 a 0.06948887,0.06948887 0 0 0 -0.0073,0 0.06948887,0.06948887 0 0 0 0.0041,0.1382 l 0.474227,0.01 -0.245786,0.4062 a 0.06948887,0.06948887 0 1 0 0.118963,0.0716 l 0.248225,-0.41028 0.248495,0.41028 a 0.06948887,0.06948887 0 1 0 0.118692,-0.0716 l -0.242804,-0.40106 0.467995,0.01 a 0.06948887,0.06948887 0 1 0 0.0033,-0.13821 l -0.474226,-0.01 0.245785,-0.40621 a 0.06948887,0.06948887 0 0 0 -0.06449,-0.10541 0.06948887,0.06948887 0 0 0 -0.0542,0.0336 l -0.248494,0.41055 -0.248496,-0.41028 a 0.06948887,0.06948887 0 0 0 -0.06368,-0.0347 z"
       style="color:#000000;font-style:normal;font-variant:normal;font-weight:normal;font-stretch:normal;font-size:medium;line-height:normal;font-family:sans-serif;font-variant-ligatures:normal;font-variant-position:normal;font-variant-caps:normal;font-variant-numeric:normal;font-variant-alternates:normal;font-feature-settings:normal;text-indent:0;text-align:start;text-decoration:none;text-decoration-line:none;text-decoration-style:solid;text-decoration-color:#000000;letter-spacing:normal;word-spacing:normal;text-transform:none;writing-mode:lr-tb;direction:ltr;text-orientation:mixed;dominant-baseline:auto;baseline-shift:baseline;text-anchor:start;white-space:normal;shape-padding:0;clip-rule:nonzero;display:inline;overflow:visible;visibility:visible;opacity:1;isolation:auto;mix-blend-mode:normal;color-interpolation:sRGB;color-interpolation-filters:linearRGB;solid-color:#000000;solid-opacity:1;vector-effect:none;fill:#1eb8fb;fill-opacity:1;fill-rule:nonzero;stroke:none;stroke-width:0.13896385;stroke-linecap:round;stroke-linejoin:round;stroke-miterlimit:4;stroke-dasharray:none;stroke-dashoffset:0;stroke-opacity:1;color-rendering:auto;image-rendering:auto;shape-rendering:auto;text-rendering:auto;enable-background:accumulate"
       inkscape:connector-curvature="0" />
    <path
       id="path1273"
       d="m -34.147355,132.30016 a 0.10285485,0.10285485 0 0 0 -0.01003,0.002 0.10285485,0.10285485 0 0 0 -0.07139,0.15603 l 0.35939,0.59364 -0.692709,-0.0144 a 0.10285485,0.10285485 0 0 0 -0.01083,0 0.10285485,0.10285485 0 0 0 0.0061,0.20456 l 0.701934,0.0144 -0.363804,0.60126 a 0.10285485,0.10285485 0 1 0 0.176085,0.10589 l 0.367414,-0.60727 0.367812,0.60727 a 0.10285485,0.10285485 0 1 0 0.175684,-0.10589 l -0.35939,-0.59364 0.692709,0.0144 a 0.10285485,0.10285485 0 1 0 0.0048,-0.20456 l -0.701931,-0.0144 0.363801,-0.60126 a 0.10285485,0.10285485 0 0 0 -0.09546,-0.15603 0.10285485,0.10285485 0 0 0 -0.08022,0.0498 l -0.367812,0.60767 -0.367814,-0.60728 a 0.10285485,0.10285485 0 0 0 -0.09426,-0.0513 z"
       style="color:#000000;font-style:normal;font-variant:normal;font-weight:normal;font-stretch:normal;font-size:medium;line-height:normal;font-family:sans-serif;font-variant-ligatures:normal;font-variant-position:normal;font-variant-caps:normal;font-variant-numeric:normal;font-variant-alternates:normal;font-feature-settings:normal;text-indent:0;text-align:start;text-decoration:none;text-decoration-line:none;text-decoration-style:solid;text-decoration-color:#000000;letter-spacing:normal;word-spacing:normal;text-transform:none;writing-mode:lr-tb;direction:ltr;text-orientation:mixed;dominant-baseline:auto;baseline-shift:baseline;text-anchor:start;white-space:normal;shape-padding:0;clip-rule:nonzero;display:inline;overflow:visible;visibility:visible;opacity:1;isolation:auto;mix-blend-mode:normal;color-interpolation:sRGB;color-interpolation-filters:linearRGB;solid-color:#000000;solid-opacity:1;vector-effect:none;fill:#1eb8fb;fill-opacity:1;fill-rule:nonzero;stroke:none;stroke-width:0.20568913;stroke-linecap:round;stroke-linejoin:round;stroke-miterlimit:4;stroke-dasharray:none;stroke-dashoffset:0;stroke-opacity:1;color-rendering:auto;image-rendering:auto;shape-rendering:auto;text-rendering:auto;enable-background:accumulate"
       inkscape:connector-curvature="0" />
    <path
       inkscape:connector-curvature="0"
       style="color:#000000;font-style:normal;font-variant:normal;font-weight:normal;font-stretch:normal;font-size:medium;line-height:normal;font-family:sans-serif;font-variant-ligatures:normal;font-variant-position:normal;font-variant-caps:normal;font-variant-numeric:normal;font-variant-alternates:normal;font-feature-settings:normal;text-indent:0;text-align:start;text-decoration:none;text-decoration-line:none;text-decoration-style:solid;text-decoration-color:#000000;letter-spacing:normal;word-spacing:normal;text-transform:none;writing-mode:lr-tb;direction:ltr;text-orientation:mixed;dominant-baseline:auto;baseline-shift:baseline;text-anchor:start;white-space:normal;shape-padding:0;clip-rule:nonzero;display:inline;overflow:visible;visibility:visible;opacity:1;isolation:auto;mix-blend-mode:normal;color-interpolation:sRGB;color-interpolation-filters:linearRGB;solid-color:#000000;solid-opacity:1;vector-effect:none;fill:#0dcfb4;fill-opacity:1;fill-rule:nonzero;stroke:none;stroke-width:0.20568913;stroke-linecap:round;stroke-linejoin:round;stroke-miterlimit:4;stroke-dasharray:none;stroke-dashoffset:0;stroke-opacity:1;color-rendering:auto;image-rendering:auto;shape-rendering:auto;text-rendering:auto;enable-background:accumulate"
       d="m -21.642265,152.34318 a 0.10285485,0.10285485 0 0 0 -0.01003,0.002 0.10285485,0.10285485 0 0 0 -0.07139,0.15603 l 0.35939,0.59364 -0.692709,-0.0144 a 0.10285485,0.10285485 0 0 0 -0.01083,0 0.10285485,0.10285485 0 0 0 0.0061,0.20456 l 0.701934,0.0144 -0.363804,0.60126 a 0.10285485,0.10285485 0 1 0 0.176085,0.10589 l 0.367414,-0.60727 0.367812,0.60727 a 0.10285485,0.10285485 0 1 0 0.175684,-0.10589 l -0.35939,-0.59364 0.692709,0.0144 a 0.10285485,0.10285485 0 1 0 0.0048,-0.20456 l -0.701931,-0.0144 0.363801,-0.60126 a 0.10285485,0.10285485 0 0 0 -0.09546,-0.15603 0.10285485,0.10285485 0 0 0 -0.08022,0.0498 l -0.367812,0.60767 -0.367814,-0.60728 a 0.10285485,0.10285485 0 0 0 -0.09426,-0.0513 z"
       id="path1275" />
    <path
       id="path1297"
       d="m -8.566127,165.56888 a 0.13251324,0.13251324 0 0 0 -0.01291,0.002 0.13251324,0.13251324 0 0 0 -0.09199,0.20102 l 0.463021,0.76481 -0.892453,-0.0186 a 0.13251324,0.13251324 0 0 0 -0.01394,0 0.13251324,0.13251324 0 0 0 0.0078,0.26355 l 0.904338,0.0186 -0.468707,0.77463 a 0.13251324,0.13251324 0 1 0 0.226859,0.13643 l 0.473358,-0.78238 0.473872,0.78238 a 0.13251324,0.13251324 0 1 0 0.226343,-0.13643 l -0.463021,-0.76481 0.892453,0.0186 a 0.13251324,0.13251324 0 1 0 0.0062,-0.26355 l -0.904335,-0.0186 0.468704,-0.77463 a 0.13251324,0.13251324 0 0 0 -0.122989,-0.20102 0.13251324,0.13251324 0 0 0 -0.103354,0.0641 l -0.473872,0.7829 -0.473874,-0.78238 a 0.13251324,0.13251324 0 0 0 -0.121438,-0.0662 z"
       style="color:#000000;font-style:normal;font-variant:normal;font-weight:normal;font-stretch:normal;font-size:medium;line-height:normal;font-family:sans-serif;font-variant-ligatures:normal;font-variant-position:normal;font-variant-caps:normal;font-variant-numeric:normal;font-variant-alternates:normal;font-feature-settings:normal;text-indent:0;text-align:start;text-decoration:none;text-decoration-line:none;text-decoration-style:solid;text-decoration-color:#000000;letter-spacing:normal;word-spacing:normal;text-transform:none;writing-mode:lr-tb;direction:ltr;text-orientation:mixed;dominant-baseline:auto;baseline-shift:baseline;text-anchor:start;white-space:normal;shape-padding:0;clip-rule:nonzero;display:inline;overflow:visible;visibility:visible;opacity:1;isolation:auto;mix-blend-mode:normal;color-interpolation:sRGB;color-interpolation-filters:linearRGB;solid-color:#000000;solid-opacity:1;vector-effect:none;fill:#1eb8fb;fill-opacity:1;fill-rule:nonzero;stroke:none;stroke-width:0.26499999;stroke-linecap:round;stroke-linejoin:round;stroke-miterlimit:4;stroke-dasharray:none;stroke-dashoffset:0;stroke-opacity:1;color-rendering:auto;image-rendering:auto;shape-rendering:auto;text-rendering:auto;enable-background:accumulate"
       inkscape:connector-curvature="0" />
    <path
       inkscape:connector-curvature="0"
       style="opacity:1;fill:none;fill-opacity:1;stroke:#2b465b;stroke-width:0.31292444;stroke-linecap:round;stroke-linejoin:round;stroke-miterlimit:4;stroke-dasharray:none;stroke-dashoffset:0;stroke-opacity:1;paint-order:normal"
       d="m -15.930281,163.8589 a 0.87271488,0.87271488 0 0 1 -0.872715,0.87272 0.87271488,0.87271488 0 0 1 -0.872715,-0.87272 0.87271488,0.87271488 0 0 1 0.872715,-0.87271 0.87271488,0.87271488 0 0 1 0.872715,0.87271 z"
       id="circle1299" />
    <path
       id="path1301"
       d="m -35.490436,169.17134 a 0.10285485,0.10285485 0 0 0 -0.01003,0.002 0.10285485,0.10285485 0 0 0 -0.07139,0.15603 l 0.35939,0.59364 -0.692709,-0.0144 a 0.10285485,0.10285485 0 0 0 -0.01083,0 0.10285485,0.10285485 0 0 0 0.0061,0.20456 l 0.701934,0.0144 -0.363804,0.60126 a 0.10285485,0.10285485 0 1 0 0.176085,0.10589 l 0.367414,-0.60727 0.367812,0.60727 a 0.10285485,0.10285485 0 1 0 0.175684,-0.10589 l -0.35939,-0.59364 0.692709,0.0144 a 0.10285485,0.10285485 0 1 0 0.0048,-0.20456 l -0.701931,-0.0144 0.363801,-0.60126 a 0.10285485,0.10285485 0 0 0 -0.09546,-0.15603 0.10285485,0.10285485 0 0 0 -0.08022,0.0498 l -0.367812,0.60767 -0.367814,-0.60728 a 0.10285485,0.10285485 0 0 0 -0.09426,-0.0513 z"
       style="color:#000000;font-style:normal;font-variant:normal;font-weight:normal;font-stretch:normal;font-size:medium;line-height:normal;font-family:sans-serif;font-variant-ligatures:normal;font-variant-position:normal;font-variant-caps:normal;font-variant-numeric:normal;font-variant-alternates:normal;font-feature-settings:normal;text-indent:0;text-align:start;text-decoration:none;text-decoration-line:none;text-decoration-style:solid;text-decoration-color:#000000;letter-spacing:normal;word-spacing:normal;text-transform:none;writing-mode:lr-tb;direction:ltr;text-orientation:mixed;dominant-baseline:auto;baseline-shift:baseline;text-anchor:start;white-space:normal;shape-padding:0;clip-rule:nonzero;display:inline;overflow:visible;visibility:visible;opacity:1;isolation:auto;mix-blend-mode:normal;color-interpolation:sRGB;color-interpolation-filters:linearRGB;solid-color:#000000;solid-opacity:1;vector-effect:none;fill:#1eb8fb;fill-opacity:1;fill-rule:nonzero;stroke:none;stroke-width:0.20568913;stroke-linecap:round;stroke-linejoin:round;stroke-miterlimit:4;stroke-dasharray:none;stroke-dashoffset:0;stroke-opacity:1;color-rendering:auto;image-rendering:auto;shape-rendering:auto;text-rendering:auto;enable-background:accumulate"
       inkscape:connector-curvature="0" />
    <rect
       style="opacity:1;fill:none;fill-opacity:1;stroke:none;stroke-width:0.47574842;stroke-linecap:round;stroke-linejoin:round;stroke-miterlimit:4;stroke-dasharray:none;stroke-dashoffset:0;stroke-opacity:1;paint-order:normal"
       id="rect1303"
       width="80.10955"
       height="80.10955"
       x="-81.206535"
       y="128.53189"
       ry="0" />
  </g>
</svg>
