<?xml version="1.0" encoding="UTF-8" standalone="no"?>
<!-- Created with Inkscape (http://www.inkscape.org/) -->

<svg
   xmlns:dc="http://purl.org/dc/elements/1.1/"
   xmlns:cc="http://creativecommons.org/ns#"
   xmlns:rdf="http://www.w3.org/1999/02/22-rdf-syntax-ns#"
   xmlns:svg="http://www.w3.org/2000/svg"
   xmlns="http://www.w3.org/2000/svg"
   xmlns:sodipodi="http://sodipodi.sourceforge.net/DTD/sodipodi-0.dtd"
   xmlns:inkscape="http://www.inkscape.org/namespaces/inkscape"
   width="135.46666mm"
   height="135.46666mm"
   viewBox="0 0 135.46666 135.46666"
   version="1.1"
   id="svg1471"
   inkscape:version="0.92.3 (2405546, 2018-03-11)"
   sodipodi:docname="saving-plan.svg">
  <defs
     id="defs1465" />
  <sodipodi:namedview
     id="base"
     pagecolor="#ffffff"
     bordercolor="#666666"
     borderopacity="1.0"
     inkscape:pageopacity="0.0"
     inkscape:pageshadow="2"
     inkscape:zoom="0.26682232"
     inkscape:cx="463.93468"
     inkscape:cy="336.66919"
     inkscape:document-units="mm"
     inkscape:current-layer="layer1"
     showgrid="false"
     showguides="true"
     inkscape:guide-bbox="true"
     inkscape:snap-global="false"
     inkscape:window-width="1366"
     inkscape:window-height="718"
     inkscape:window-x="0"
     inkscape:window-y="24"
     inkscape:window-maximized="1" />
  <metadata
     id="metadata1468">
    <rdf:RDF>
      <cc:Work
         rdf:about="">
        <dc:format>image/svg+xml</dc:format>
        <dc:type
           rdf:resource="http://purl.org/dc/dcmitype/StillImage" />
        <dc:title></dc:title>
      </cc:Work>
    </rdf:RDF>
  </metadata>
  <g
     inkscape:label="Layer 1"
     inkscape:groupmode="layer"
     id="layer1"
     transform="translate(67.559731,-13.210592)">
    <rect
       style="opacity:1;fill:none;fill-opacity:1;stroke:none;stroke-width:4.95710135;stroke-linecap:round;stroke-linejoin:round;stroke-miterlimit:4;stroke-dasharray:none;stroke-dashoffset:0;stroke-opacity:1;paint-order:normal"
       id="rect3458"
       width="135.46666"
       height="135.46666"
       x="-67.559731"
       y="13.210592"
       ry="2.2104046" />
    <g
       id="g4191"
       transform="matrix(7.5366494,0,0,7.5366494,-794.75155,-1055.4415)">
      <path
         inkscape:connector-curvature="0"
         id="rect4128"
         d="m 98.361328,144.125 c -0.40909,0 -0.751953,0.34091 -0.751953,0.75 v 11.8125 c 0,0.40909 0.342863,0.75 0.751953,0.75 h 14.228512 c 0.40909,0 0.75,-0.34091 0.75,-0.75 V 144.875 c 0,-0.40909 -0.34091,-0.75 -0.75,-0.75 z m 0.04297,0.79297 h 14.142582 v 11.72656 H 98.404297 Z"
         style="color:#000000;font-style:normal;font-variant:normal;font-weight:normal;font-stretch:normal;font-size:medium;line-height:normal;font-family:sans-serif;font-variant-ligatures:normal;font-variant-position:normal;font-variant-caps:normal;font-variant-numeric:normal;font-variant-alternates:normal;font-feature-settings:normal;text-indent:0;text-align:start;text-decoration:none;text-decoration-line:none;text-decoration-style:solid;text-decoration-color:#000000;letter-spacing:normal;word-spacing:normal;text-transform:none;writing-mode:lr-tb;direction:ltr;text-orientation:mixed;dominant-baseline:auto;baseline-shift:baseline;text-anchor:start;white-space:normal;shape-padding:0;clip-rule:nonzero;display:inline;overflow:visible;visibility:visible;opacity:1;isolation:auto;mix-blend-mode:normal;color-interpolation:sRGB;color-interpolation-filters:linearRGB;solid-color:#000000;solid-opacity:1;vector-effect:none;fill:#2f495c;fill-opacity:1;fill-rule:nonzero;stroke:none;stroke-width:0.79374999;stroke-linecap:round;stroke-linejoin:round;stroke-miterlimit:4;stroke-dasharray:none;stroke-dashoffset:0;stroke-opacity:1;paint-order:normal;color-rendering:auto;image-rendering:auto;shape-rendering:auto;text-rendering:auto;enable-background:accumulate" />
      <path
         inkscape:connector-curvature="0"
         id="rect4130"
         d="m 99.972656,145.79297 c -0.307632,0 -0.566406,0.25683 -0.566406,0.56445 v 8.8457 c 0,0.30762 0.258774,0.56446 0.566406,0.56446 h 10.830074 c 0.30764,0 0.56446,-0.25684 0.56446,-0.56446 v -8.8457 c 0,-0.30762 -0.25682,-0.56445 -0.56446,-0.56445 z m 0.0332,0.59961 h 10.76367 v 8.77734 h -10.76367 z"
         style="color:#000000;font-style:normal;font-variant:normal;font-weight:normal;font-stretch:normal;font-size:medium;line-height:normal;font-family:sans-serif;font-variant-ligatures:normal;font-variant-position:normal;font-variant-caps:normal;font-variant-numeric:normal;font-variant-alternates:normal;font-feature-settings:normal;text-indent:0;text-align:start;text-decoration:none;text-decoration-line:none;text-decoration-style:solid;text-decoration-color:#000000;letter-spacing:normal;word-spacing:normal;text-transform:none;writing-mode:lr-tb;direction:ltr;text-orientation:mixed;dominant-baseline:auto;baseline-shift:baseline;text-anchor:start;white-space:normal;shape-padding:0;clip-rule:nonzero;display:inline;overflow:visible;visibility:visible;opacity:1;isolation:auto;mix-blend-mode:normal;color-interpolation:sRGB;color-interpolation-filters:linearRGB;solid-color:#000000;solid-opacity:1;vector-effect:none;fill:#2f495c;fill-opacity:1;fill-rule:nonzero;stroke:none;stroke-width:0.59910941;stroke-linecap:round;stroke-linejoin:round;stroke-miterlimit:4;stroke-dasharray:none;stroke-dashoffset:0;stroke-opacity:1;paint-order:normal;color-rendering:auto;image-rendering:auto;shape-rendering:auto;text-rendering:auto;enable-background:accumulate" />
      <path
         id="rect4132"
         d="m 99.697927,147.62021 c 0.248924,0 0.449323,0.2004 0.449323,0.44932 v 1.70433 c 0,0.24892 -0.200399,0.44932 -0.449323,0.44932 -0.248925,0 -0.449323,-0.2004 -0.449323,-0.44932 v -1.70433 c 0,-0.24892 0.200398,-0.44932 0.449323,-0.44932 z"
         style="opacity:1;fill:#42b9d6;fill-opacity:1;stroke:none;stroke-width:0.79374999;stroke-linecap:round;stroke-linejoin:round;stroke-miterlimit:4;stroke-dasharray:none;stroke-dashoffset:0;stroke-opacity:1;paint-order:normal"
         inkscape:connector-curvature="0" />
      <path
         id="rect4134"
         d="m 99.697927,151.83455 c 0.248924,0 0.449323,0.2004 0.449323,0.44932 v 1.70433 c 0,0.24892 -0.200399,0.44932 -0.449323,0.44932 -0.248925,0 -0.449323,-0.2004 -0.449323,-0.44932 v -1.70433 c 0,-0.24892 0.200398,-0.44932 0.449323,-0.44932 z"
         style="opacity:1;fill:#42b9d6;fill-opacity:1;stroke:none;stroke-width:0.79374999;stroke-linecap:round;stroke-linejoin:round;stroke-miterlimit:4;stroke-dasharray:none;stroke-dashoffset:0;stroke-opacity:1;paint-order:normal"
         inkscape:connector-curvature="0" />
      <path
         id="circle4140"
         d="m 104.16483,150.65701 a 1.3855091,1.3855091 0 0 1 -1.38551,1.38551 1.3855091,1.3855091 0 0 1 -1.38551,-1.38551 1.3855091,1.3855091 0 0 1 1.38551,-1.38551 1.3855091,1.3855091 0 0 1 1.38551,1.38551 z"
         style="opacity:1;fill:#42b9d6;fill-opacity:1;stroke:none;stroke-width:0.79374999;stroke-linecap:round;stroke-linejoin:round;stroke-miterlimit:4;stroke-dasharray:none;stroke-dashoffset:0;stroke-opacity:1;paint-order:normal"
         inkscape:connector-curvature="0" />
      <path
         inkscape:connector-curvature="0"
         id="path4136"
         d="m 102.7793,149.00781 c -0.90819,0 -1.65039,0.74025 -1.65039,1.64844 0,0.90819 0.7422,1.65039 1.65039,1.65039 0.90818,0 1.65039,-0.7422 1.65039,-1.65039 0,-0.90819 -0.74221,-1.64844 -1.65039,-1.64844 z m 0,0.52735 c 0.6222,0 1.12109,0.49889 1.12109,1.12109 0,0.6222 -0.49889,1.12109 -1.12109,1.12109 -0.62221,0 -1.1211,-0.49889 -1.1211,-1.12109 0,-0.6222 0.49889,-1.12109 1.1211,-1.12109 z"
         style="color:#000000;font-style:normal;font-variant:normal;font-weight:normal;font-stretch:normal;font-size:medium;line-height:normal;font-family:sans-serif;font-variant-ligatures:normal;font-variant-position:normal;font-variant-caps:normal;font-variant-numeric:normal;font-variant-alternates:normal;font-feature-settings:normal;text-indent:0;text-align:start;text-decoration:none;text-decoration-line:none;text-decoration-style:solid;text-decoration-color:#000000;letter-spacing:normal;word-spacing:normal;text-transform:none;writing-mode:lr-tb;direction:ltr;text-orientation:mixed;dominant-baseline:auto;baseline-shift:baseline;text-anchor:start;white-space:normal;shape-padding:0;clip-rule:nonzero;display:inline;overflow:visible;visibility:visible;opacity:1;isolation:auto;mix-blend-mode:normal;color-interpolation:sRGB;color-interpolation-filters:linearRGB;solid-color:#000000;solid-opacity:1;vector-effect:none;fill:#2f495c;fill-opacity:1;fill-rule:nonzero;stroke:none;stroke-width:0.5291667;stroke-linecap:round;stroke-linejoin:round;stroke-miterlimit:4;stroke-dasharray:none;stroke-dashoffset:0;stroke-opacity:1;paint-order:normal;color-rendering:auto;image-rendering:auto;shape-rendering:auto;text-rendering:auto;enable-background:accumulate" />
      <path
         inkscape:connector-curvature="0"
         id="circle4138"
         d="m 102.7793,150.18945 c -0.25706,0 -0.46679,0.20974 -0.4668,0.4668 0,0.25706 0.20973,0.46875 0.4668,0.46875 0.25706,0 0.4668,-0.21169 0.46679,-0.46875 0,-0.25706 -0.20973,-0.4668 -0.46679,-0.4668 z m 0,0.20899 c 0.1445,0 0.25976,0.11331 0.25976,0.25781 0,0.1445 -0.11526,0.25977 -0.25976,0.25977 -0.14451,0 -0.25977,-0.11527 -0.25977,-0.25977 0,-0.1445 0.11527,-0.25781 0.25977,-0.25781 z"
         style="color:#000000;font-style:normal;font-variant:normal;font-weight:normal;font-stretch:normal;font-size:medium;line-height:normal;font-family:sans-serif;font-variant-ligatures:normal;font-variant-position:normal;font-variant-caps:normal;font-variant-numeric:normal;font-variant-alternates:normal;font-feature-settings:normal;text-indent:0;text-align:start;text-decoration:none;text-decoration-line:none;text-decoration-style:solid;text-decoration-color:#000000;letter-spacing:normal;word-spacing:normal;text-transform:none;writing-mode:lr-tb;direction:ltr;text-orientation:mixed;dominant-baseline:auto;baseline-shift:baseline;text-anchor:start;white-space:normal;shape-padding:0;clip-rule:nonzero;display:inline;overflow:visible;visibility:visible;opacity:1;isolation:auto;mix-blend-mode:normal;color-interpolation:sRGB;color-interpolation-filters:linearRGB;solid-color:#000000;solid-opacity:1;vector-effect:none;fill:#2f495c;fill-opacity:1;fill-rule:nonzero;stroke:none;stroke-width:0.2082741;stroke-linecap:round;stroke-linejoin:round;stroke-miterlimit:4;stroke-dasharray:none;stroke-dashoffset:0;stroke-opacity:1;paint-order:normal;color-rendering:auto;image-rendering:auto;shape-rendering:auto;text-rendering:auto;enable-background:accumulate" />
      <path
         id="rect4142"
         d="m 109.08115,148.7868 c 0.12746,0 0.23008,0.10262 0.23008,0.23008 v 3.04572 c 0,0.12746 -0.10262,0.23007 -0.23008,0.23007 -0.12746,0 -0.23007,-0.10261 -0.23007,-0.23007 v -3.04572 c 0,-0.12746 0.10261,-0.23008 0.23007,-0.23008 z"
         style="opacity:1;fill:#2f495c;fill-opacity:1;stroke:none;stroke-width:0.52916664;stroke-linecap:round;stroke-linejoin:round;stroke-miterlimit:4;stroke-dasharray:none;stroke-dashoffset:0;stroke-opacity:1;paint-order:normal"
         inkscape:connector-curvature="0" />
      <path
         inkscape:connector-curvature="0"
         id="circle4144"
         d="m 109.08203,148.78711 c -0.25706,0 -0.46875,0.20973 -0.46875,0.4668 1e-5,0.25706 0.21169,0.46875 0.46875,0.46875 0.25706,-1e-5 0.46679,-0.2117 0.4668,-0.46875 0,-0.25706 -0.20974,-0.4668 -0.4668,-0.4668 z m 0,0.20703 c 0.1445,0 0.25781,0.11527 0.25781,0.25977 0,0.14449 -0.11331,0.25976 -0.25781,0.25976 -0.1445,0 -0.25976,-0.11526 -0.25976,-0.25976 -1e-5,-0.14451 0.11526,-0.25977 0.25976,-0.25977 z"
         style="color:#000000;font-style:normal;font-variant:normal;font-weight:normal;font-stretch:normal;font-size:medium;line-height:normal;font-family:sans-serif;font-variant-ligatures:normal;font-variant-position:normal;font-variant-caps:normal;font-variant-numeric:normal;font-variant-alternates:normal;font-feature-settings:normal;text-indent:0;text-align:start;text-decoration:none;text-decoration-line:none;text-decoration-style:solid;text-decoration-color:#000000;letter-spacing:normal;word-spacing:normal;text-transform:none;writing-mode:lr-tb;direction:ltr;text-orientation:mixed;dominant-baseline:auto;baseline-shift:baseline;text-anchor:start;white-space:normal;shape-padding:0;clip-rule:nonzero;display:inline;overflow:visible;visibility:visible;opacity:1;isolation:auto;mix-blend-mode:normal;color-interpolation:sRGB;color-interpolation-filters:linearRGB;solid-color:#000000;solid-opacity:1;vector-effect:none;fill:#2f495c;fill-opacity:1;fill-rule:nonzero;stroke:none;stroke-width:0.2082741;stroke-linecap:round;stroke-linejoin:round;stroke-miterlimit:4;stroke-dasharray:none;stroke-dashoffset:0;stroke-opacity:1;paint-order:normal;color-rendering:auto;image-rendering:auto;shape-rendering:auto;text-rendering:auto;enable-background:accumulate" />
      <path
         inkscape:connector-curvature="0"
         id="circle4146"
         d="m 109.08203,151.35742 c -0.25706,0 -0.46875,0.20973 -0.46875,0.4668 0,0.25706 0.21169,0.46875 0.46875,0.46875 0.25706,-1e-5 0.4668,-0.21169 0.4668,-0.46875 0,-0.25706 -0.20974,-0.46679 -0.4668,-0.4668 z m 0,0.20899 c 0.1445,0 0.25781,0.11331 0.25781,0.25781 0,0.1445 -0.11331,0.25976 -0.25781,0.25976 -0.1445,1e-5 -0.25977,-0.11526 -0.25976,-0.25976 -1e-5,-0.1445 0.11526,-0.25781 0.25976,-0.25781 z"
         style="color:#000000;font-style:normal;font-variant:normal;font-weight:normal;font-stretch:normal;font-size:medium;line-height:normal;font-family:sans-serif;font-variant-ligatures:normal;font-variant-position:normal;font-variant-caps:normal;font-variant-numeric:normal;font-variant-alternates:normal;font-feature-settings:normal;text-indent:0;text-align:start;text-decoration:none;text-decoration-line:none;text-decoration-style:solid;text-decoration-color:#000000;letter-spacing:normal;word-spacing:normal;text-transform:none;writing-mode:lr-tb;direction:ltr;text-orientation:mixed;dominant-baseline:auto;baseline-shift:baseline;text-anchor:start;white-space:normal;shape-padding:0;clip-rule:nonzero;display:inline;overflow:visible;visibility:visible;opacity:1;isolation:auto;mix-blend-mode:normal;color-interpolation:sRGB;color-interpolation-filters:linearRGB;solid-color:#000000;solid-opacity:1;vector-effect:none;fill:#2f495c;fill-opacity:1;fill-rule:nonzero;stroke:none;stroke-width:0.2082741;stroke-linecap:round;stroke-linejoin:round;stroke-miterlimit:4;stroke-dasharray:none;stroke-dashoffset:0;stroke-opacity:1;paint-order:normal;color-rendering:auto;image-rendering:auto;shape-rendering:auto;text-rendering:auto;enable-background:accumulate" />
    </g>
  </g>
</svg>
