<?xml version="1.0" encoding="UTF-8" standalone="no"?>
<!-- Created with Inkscape (http://www.inkscape.org/) -->

<svg
   xmlns:dc="http://purl.org/dc/elements/1.1/"
   xmlns:cc="http://creativecommons.org/ns#"
   xmlns:rdf="http://www.w3.org/1999/02/22-rdf-syntax-ns#"
   xmlns:svg="http://www.w3.org/2000/svg"
   xmlns="http://www.w3.org/2000/svg"
   xmlns:sodipodi="http://sodipodi.sourceforge.net/DTD/sodipodi-0.dtd"
   xmlns:inkscape="http://www.inkscape.org/namespaces/inkscape"
   width="101.639mm"
   height="22.61574mm"
   viewBox="0 0 101.639 22.61574"
   version="1.1"
   id="svg2914"
   inkscape:version="0.92.3 (2405546, 2018-03-11)"
   sodipodi:docname="landing-cloud.svg">
  <defs
     id="defs2908" />
  <sodipodi:namedview
     id="base"
     pagecolor="#ffffff"
     bordercolor="#666666"
     borderopacity="1.0"
     inkscape:pageopacity="0.0"
     inkscape:pageshadow="2"
     inkscape:zoom="1.1506713"
     inkscape:cx="74.19725"
     inkscape:cy="-17.187182"
     inkscape:document-units="mm"
     inkscape:current-layer="layer1"
     showgrid="false"
     inkscape:window-width="1366"
     inkscape:window-height="718"
     inkscape:window-x="0"
     inkscape:window-y="24"
     inkscape:window-maximized="1" />
  <metadata
     id="metadata2911">
    <rdf:RDF>
      <cc:Work
         rdf:about="">
        <dc:format>image/svg+xml</dc:format>
        <dc:type
           rdf:resource="http://purl.org/dc/dcmitype/StillImage" />
        <dc:title />
      </cc:Work>
    </rdf:RDF>
  </metadata>
  <g
     inkscape:label="Layer 1"
     inkscape:groupmode="layer"
     id="layer1"
     transform="translate(15.604026,-133.21257)">
    <path
       inkscape:connector-curvature="0"
       style="fill:#ffffff;stroke:none;stroke-width:1.03269541px;stroke-linecap:butt;stroke-linejoin:miter;stroke-opacity:1"
       d="m 6.7814385,133.21257 a 0.88962057,0.88962057 0 0 0 -0.8847638,0.80326 c -0.35232,0.0417 -0.6274528,0.32854 -0.6274528,0.69266 0,0.39281 0.3160809,0.70896 0.7089318,0.70896 h 1.8556554 c 0.3929106,0 0.7089912,-0.31615 0.7089912,-0.70896 0,-0.39284 -0.3160806,-0.70897 -0.7089912,-0.70897 h -0.168799 a 0.88962057,0.88962057 0 0 0 -0.8835716,-0.78695 z m 59.3643485,9.32712 c -0.345167,0.0113 -0.708453,0.0633 -1.088491,0.16535 -3.044639,0.81546 -2.92996,3.86961 -2.889428,3.86961 -2.243739,-0.81336 -4.756888,1.76909 -4.797419,1.90686 -0.868908,0.0843 -1.57045,1.00872 -1.57045,1.17696 -2.01891,-0.89748 -6.11872,1.07683 -6.11872,1.07683 0,-0.50709 -0.662919,-0.44237 -0.691529,-0.50058 -0.148659,-0.35073 -0.797385,-0.21424 -0.797385,-0.21424 0,0 -0.290152,-0.8277 -1.902264,-0.8277 -1.612053,0 -2.313595,1.01401 -2.396922,0.99186 -0.930181,-0.35136 -1.838967,-0.10182 -1.798613,-0.14327 -0.785108,-0.97137 -1.887068,-0.28989 -1.887068,-0.28989 0,0 -2.017482,0.0584 -2.017482,0 -0.964395,-1.11065 -2.455153,-0.7893 -2.455153,-0.7893 0,0 -0.438508,-1.19851 -2.162976,-1.05237 -1.723154,0.1462 -0.923147,0.74158 -1.866143,0.48894 -1.052014,-0.28189 -1.786933,1.03142 -1.786933,1.03142 0,0 -1.051656,-1.16864 -3.653139,-0.9348 -2.579368,0.23187 -3.257842,2.23473 -3.268869,2.23982 h -0.03397 c -1.483189,-0.67866 -3.10943,0 -3.10943,0 -2.220969,-1.62619 -5.949505,-1.26985 -5.909153,-1.30966 -1.031092,-1.82451 -3.25075,-0.83226 -3.291043,-0.87195 -1.0310917,-1.86418 -2.9755575,-2.18276 -2.9755575,-2.18276 0,0 0.436064,-2.65427 -2.9743654,-3.56812 -3.4104891,-0.91387 -4.84033285,1.62072 -4.91734124,1.66474 -3.92677906,0.3173 -2.93598146,3.76918 -2.93598146,3.88823 -1.0335954,0.67425 -0.871949,2.45751 -0.871949,2.45751 h -4.1268732 c -0.2005177,-1.07089 -1.3642187,-1.57598 -1.5052412,-1.82304 -1.586604,-4.83894 -5.949924,-3.33295 -5.949924,-3.33295 v 10.17112 h 101.639 v -9.67403 c -1.317848,-0.11218 -2.424696,2.55098 -2.384167,2.57974 -2.384104,-0.33651 -3.225834,1.87894 -3.225834,1.87894 H 76.30275 c 0,0 0.560576,-2.10408 -0.926666,-4.43191 -1.48593,-2.32778 -5.300358,-1.85098 -5.300358,-1.85098 0,0 -1.512693,-1.86934 -3.930117,-1.79044 z"
       id="path1443-6" />
  </g>
</svg>
