<?xml version="1.0" encoding="UTF-8" standalone="no"?>
<!-- Created with Inkscape (http://www.inkscape.org/) -->

<svg
   xmlns:dc="http://purl.org/dc/elements/1.1/"
   xmlns:cc="http://creativecommons.org/ns#"
   xmlns:rdf="http://www.w3.org/1999/02/22-rdf-syntax-ns#"
   xmlns:svg="http://www.w3.org/2000/svg"
   xmlns="http://www.w3.org/2000/svg"
   xmlns:sodipodi="http://sodipodi.sourceforge.net/DTD/sodipodi-0.dtd"
   xmlns:inkscape="http://www.inkscape.org/namespaces/inkscape"
   width="105.11019mm"
   height="35.674557mm"
   viewBox="0 0 105.11019 35.674557"
   version="1.1"
   id="svg8015"
   sodipodi:docname="login-bottom.svg"
   inkscape:version="0.92.3 (2405546, 2018-03-11)">
  <defs
     id="defs8009" />
  <sodipodi:namedview
     id="base"
     pagecolor="#ffffff"
     bordercolor="#666666"
     borderopacity="1.0"
     inkscape:pageopacity="0.0"
     inkscape:pageshadow="2"
     inkscape:zoom="0.26682232"
     inkscape:cx="139.70413"
     inkscape:cy="528.86675"
     inkscape:document-units="mm"
     inkscape:current-layer="layer1"
     showgrid="false"
     inkscape:window-width="1366"
     inkscape:window-height="718"
     inkscape:window-x="0"
     inkscape:window-y="24"
     inkscape:window-maximized="1"
     showguides="true"
     inkscape:guide-bbox="true"
     inkscape:snap-bbox="true" />
  <metadata
     id="metadata8012">
    <rdf:RDF>
      <cc:Work
         rdf:about="">
        <dc:format>image/svg+xml</dc:format>
        <dc:type
           rdf:resource="http://purl.org/dc/dcmitype/StillImage" />
        <dc:title></dc:title>
      </cc:Work>
    </rdf:RDF>
  </metadata>
  <g
     inkscape:label="Layer 1"
     inkscape:groupmode="layer"
     id="layer1"
     transform="translate(21.31196,-134.79611)">
    <path
       style="fill:#b8e9fe;fill-opacity:1;stroke:none;stroke-width:0.77905566px;stroke-linecap:butt;stroke-linejoin:miter;stroke-opacity:1"
       d="m -14.180251,134.80454 c -2.26892,-0.0972 -4.9047,0.66098 -7.131709,1.51855 v 32.33082 c 0,1.00668 0.81014,1.81676 1.816836,1.81676 H 81.981397 c 1.006694,0 1.816834,-0.81008 1.816834,-1.81676 v -19.26338 c -5.348295,1.0194 -11.897348,2.79438 -18.487379,5.90835 -15.402789,7.27821 -31.143531,8.29382 -44.853508,8.4631 -13.710288,0.1693 -16.9295806,-4.51531 -20.73791587,-8.32368 -3.80841473,-3.80836 -6.98540433,-18.46872 -11.89267513,-20.26402 -0.613428,-0.22437 -1.290973,-0.33909 -2.007004,-0.36974 z"
       id="path7950"
       inkscape:connector-curvature="0"
       sodipodi:nodetypes="ccsssscccccc" />
    <path
       style="fill:#7fd6fd;fill-opacity:1;stroke:none;stroke-width:0.77905566px;stroke-linecap:butt;stroke-linejoin:miter;stroke-opacity:1"
       d="m -14.318688,137.94814 c -4.604297,0.14575 -6.993272,2.15034 -6.993272,2.15034 v 28.55543 c 0,1.00668 0.81014,1.81676 1.816836,1.81676 H 81.981397 c 1.006694,0 1.816834,-0.81008 1.816834,-1.81676 v -13.52545 c -0.17234,-0.0704 -0.3533,-0.12926 -0.546274,-0.16901 -5.754961,-1.18483 -16.756786,6.77105 -35.375514,10.32552 -18.618731,3.5545 -40.9328323,0.96593 -45.3754755,-1.5992 -4.4431878,-2.56509 -8.7308757,-23.87938 -14.7122335,-25.48211 -0.747737,-0.20022 -1.449667,-0.27649 -2.107422,-0.25558 z"
       id="path7945"
       inkscape:connector-curvature="0"
       sodipodi:nodetypes="ccssssccsccc" />
    <path
       inkscape:connector-curvature="0"
       style="fill:#1eb8fb;fill-opacity:1;stroke:none;stroke-width:0.77905566px;stroke-linecap:butt;stroke-linejoin:miter;stroke-opacity:1"
       d="m -16.596492,141.7278 c -1.777884,0.0674 -3.34129,0.53651 -4.715468,1.24315 v 27.50246 c 0,0 0.81014,-0.003 1.816836,-0.003 H 81.981397 c 1.006694,0 1.816834,0.003 1.816834,0.003 v -8.15999 c -4.187191,-0.0889 -9.685064,0.15017 -14.94509,1.46531 -10.532366,2.63309 -34.136275,5.57139 -53.140168,0.4793 -19.003816,-5.0921 -17.4749216,-19.8672 -29.203914,-22.2609 -1.099639,-0.22437 -2.133834,-0.3062 -3.105551,-0.26942 z"
       id="path7940"
       sodipodi:nodetypes="cccssccccccc" />
  </g>
</svg>
