<?xml version="1.0" encoding="UTF-8" standalone="no"?>
<!-- Created with Inkscape (http://www.inkscape.org/) -->

<svg
   xmlns:dc="http://purl.org/dc/elements/1.1/"
   xmlns:cc="http://creativecommons.org/ns#"
   xmlns:rdf="http://www.w3.org/1999/02/22-rdf-syntax-ns#"
   xmlns:svg="http://www.w3.org/2000/svg"
   xmlns="http://www.w3.org/2000/svg"
   xmlns:sodipodi="http://sodipodi.sourceforge.net/DTD/sodipodi-0.dtd"
   xmlns:inkscape="http://www.inkscape.org/namespaces/inkscape"
   width="108.6196mm"
   height="18.61875mm"
   viewBox="0 0 108.6196 18.61875"
   version="1.1"
   id="svg8015"
   sodipodi:docname="login-top.svg"
   inkscape:version="0.92.3 (2405546, 2018-03-11)">
  <defs
     id="defs8009" />
  <sodipodi:namedview
     id="base"
     pagecolor="#ffffff"
     bordercolor="#666666"
     borderopacity="1.0"
     inkscape:pageopacity="0.0"
     inkscape:pageshadow="2"
     inkscape:zoom="2.1345786"
     inkscape:cx="139.49359"
     inkscape:cy="15.142403"
     inkscape:document-units="mm"
     inkscape:current-layer="layer1"
     showgrid="false"
     inkscape:window-width="1366"
     inkscape:window-height="718"
     inkscape:window-x="0"
     inkscape:window-y="24"
     inkscape:window-maximized="1"
     showguides="true"
     inkscape:guide-bbox="true" />
  <metadata
     id="metadata8012">
    <rdf:RDF>
      <cc:Work
         rdf:about="">
        <dc:format>image/svg+xml</dc:format>
        <dc:type
           rdf:resource="http://purl.org/dc/dcmitype/StillImage" />
      </cc:Work>
    </rdf:RDF>
  </metadata>
  <g
     inkscape:label="Layer 1"
     inkscape:groupmode="layer"
     id="layer1"
     transform="translate(22.055831,-107.48911)">
    <path
       inkscape:connector-curvature="0"
       style="fill:#b8e9fe;fill-opacity:1;stroke:none;stroke-width:0.80506665px;stroke-linecap:butt;stroke-linejoin:miter;stroke-opacity:1"
       d="m -20.178334,107.48911 c -1.040308,0 -1.877497,0.83713 -1.877497,1.87742 v 10.48634 c 0.262135,0.171 0.537141,0.33841 0.834934,0.49685 8.221019,4.37283 27.1100589,-2.97388 40.053678,-4.1983 12.94338,-1.22438 5.773295,-2.79792 33.059664,-1.04878 15.926391,1.02094 27.643895,6.56122 34.671323,11.00522 v -16.74133 c 0,-1.04029 -0.837189,-1.87742 -1.877494,-1.87742 z"
       id="path7979" />
    <path
       inkscape:connector-curvature="0"
       style="fill:#7fd6fd;fill-opacity:1;stroke:none;stroke-width:0.80506665px;stroke-linecap:butt;stroke-linejoin:miter;stroke-opacity:1"
       d="m -20.178334,107.48911 c -1.040308,0 -1.877497,0 -1.877497,0 v 2.32401 c 2.236879,3.69359 6.975016,9.10765 15.3796721,8.44847 12.615557,-0.98945 32.2809209,-5.56572 44.1544459,-5.071 10.760684,0.44839 32.87788,0.90362 49.085481,3.56151 v -7.38557 c 0,-1.04029 -0.837189,-1.87742 -1.877494,-1.87742 z"
       id="path7974"
       sodipodi:nodetypes="sccsccsss" />
    <path
       inkscape:connector-curvature="0"
       style="fill:#1eb8fb;fill-opacity:1;stroke:none;stroke-width:0.80506665px;stroke-linecap:butt;stroke-linejoin:miter;stroke-opacity:1"
       d="m -19.568255,107.48911 c 4.24592,3.82978 9.8949142,7.23206 17.2208589,8.54596 20.5311331,3.68224 28.9411841,-2.47405 49.4723171,-3.71084 14.19582,-0.85517 30.569909,0.76127 39.438847,1.84757 l 0,-6.68269 c 0,0 -0.837189,0 -1.877494,0 z"
       id="path7969"
       sodipodi:nodetypes="cscccsc" />
  </g>
</svg>
