<?xml version="1.0" encoding="UTF-8" standalone="no"?>
<!-- Created with Inkscape (http://www.inkscape.org/) -->

<svg
   xmlns:dc="http://purl.org/dc/elements/1.1/"
   xmlns:cc="http://creativecommons.org/ns#"
   xmlns:rdf="http://www.w3.org/1999/02/22-rdf-syntax-ns#"
   xmlns:svg="http://www.w3.org/2000/svg"
   xmlns="http://www.w3.org/2000/svg"
   xmlns:sodipodi="http://sodipodi.sourceforge.net/DTD/sodipodi-0.dtd"
   xmlns:inkscape="http://www.inkscape.org/namespaces/inkscape"
   width="135.46666mm"
   height="135.46666mm"
   viewBox="0 0 135.46666 135.46666"
   version="1.1"
   id="svg1655"
   inkscape:version="0.92.3 (2405546, 2018-03-11)"
   sodipodi:docname="logo.svg">
  <defs
     id="defs1649" />
  <sodipodi:namedview
     id="base"
     pagecolor="#ffffff"
     bordercolor="#666666"
     borderopacity="1.0"
     inkscape:pageopacity="0.0"
     inkscape:pageshadow="2"
     inkscape:zoom="1.0672893"
     inkscape:cx="266.42613"
     inkscape:cy="237.42974"
     inkscape:document-units="mm"
     inkscape:current-layer="layer1"
     showgrid="false"
     inkscape:window-width="1366"
     inkscape:window-height="718"
     inkscape:window-x="0"
     inkscape:window-y="24"
     inkscape:window-maximized="1" />
  <metadata
     id="metadata1652">
    <rdf:RDF>
      <cc:Work
         rdf:about="">
        <dc:format>image/svg+xml</dc:format>
        <dc:type
           rdf:resource="http://purl.org/dc/dcmitype/StillImage" />
        <dc:title></dc:title>
      </cc:Work>
    </rdf:RDF>
  </metadata>
  <g
     inkscape:label="Layer 1"
     inkscape:groupmode="layer"
     id="layer1"
     transform="translate(232.03644,-32.624203)">
    <rect
       style="opacity:1;fill:none;fill-opacity:1;stroke:none;stroke-width:0.07801193;stroke-linecap:round;stroke-linejoin:round;stroke-miterlimit:4;stroke-dasharray:0.2340358, 0.2340358;stroke-dashoffset:0;stroke-opacity:1;paint-order:normal"
       id="rect2234"
       width="135.46666"
       height="135.46666"
       x="-232.03644"
       y="32.624203"
       ry="0.329382"
       inkscape:export-xdpi="100"
       inkscape:export-ydpi="100" />
    <g
       id="g1624"
       transform="matrix(18.253048,0,0,18.253048,21564.973,1923.6911)"
       inkscape:export-xdpi="100"
       inkscape:export-ydpi="100">
      <rect
         transform="matrix(0.99231113,0.12376838,0,1,0,0)"
         style="opacity:1;fill:#6499a8;fill-opacity:1;stroke:none;stroke-width:0.50549239;stroke-linecap:round;stroke-linejoin:round;stroke-miterlimit:4;stroke-dasharray:4.0439392, 2.0219696;stroke-dashoffset:0;stroke-opacity:1;paint-order:normal"
         id="rect1481"
         width="5.0928202"
         height="4.1234913"
         x="-1201.5714"
         y="47.035458"
         ry="0.49282414" />
      <path
         inkscape:connector-curvature="0"
         id="path1504"
         d="m -1192.2735,-101.41286 c -0.037,0.0648 -0.059,0.14031 -0.059,0.22479 v 0.45837 c 0.048,0.0177 0.099,0.0284 0.1525,0.0284 h 1.713 c 0.242,0 0.4372,-0.19515 0.4372,-0.43719 v -0.25528 l -0.1524,-0.0191 z"
         style="opacity:1;fill:#518391;fill-opacity:1;stroke:none;stroke-width:0.54504162;stroke-linecap:round;stroke-linejoin:round;stroke-miterlimit:4;stroke-dasharray:4.36033328, 2.18016663;stroke-dashoffset:0;stroke-opacity:1;paint-order:normal" />
      <rect
         ry="0.33513713"
         y="-102.31098"
         x="-1190.3223"
         height="1.6095676"
         width="2.5868051"
         id="rect1490"
         style="opacity:1;fill:#d0e7f4;fill-opacity:1;stroke:none;stroke-width:0.08695095;stroke-linecap:round;stroke-linejoin:round;stroke-miterlimit:4;stroke-dasharray:0.26085285, 0.26085285;stroke-dashoffset:0;stroke-opacity:1;paint-order:normal" />
      <path
         inkscape:connector-curvature="0"
         id="rect1494"
         d="m -1190.1526,-102.31099 c -0.1856,0 -0.3348,0.14971 -0.3348,0.33538 v 0.93896 c 0,0.18566 0.1492,0.33538 0.3348,0.33538 h 0.9313 c 0.242,0 0.4371,-0.19516 0.4371,-0.43719 v -1.17253 z"
         style="opacity:1;fill:#badcef;fill-opacity:1;stroke:none;stroke-width:0.09927543;stroke-linecap:round;stroke-linejoin:round;stroke-miterlimit:4;stroke-dasharray:0.29782627, 0.29782627;stroke-dashoffset:0;stroke-opacity:1;paint-order:normal" />
      <rect
         style="opacity:1;fill:#9ebfc8;fill-opacity:1;stroke:none;stroke-width:0.09927543;stroke-linecap:round;stroke-linejoin:round;stroke-miterlimit:4;stroke-dasharray:0.29782627, 0.29782627;stroke-dashoffset:0;stroke-opacity:1;paint-order:normal"
         id="rect1492"
         width="2.5868051"
         height="2.0981865"
         x="-1191.6012"
         y="-102.7996"
         ry="0.43687519" />
      <path
         inkscape:connector-curvature="0"
         id="rect1499"
         d="m -1191.6011,-101.41286 v 0.2744 c 0,0.24203 0.1946,0.43719 0.4366,0.43719 h 1.7131 c 0.242,0 0.4372,-0.19516 0.4372,-0.43719 v -0.2744 z"
         style="opacity:1;fill:#84aeb9;fill-opacity:1;stroke:none;stroke-width:0.54504162;stroke-linecap:round;stroke-linejoin:round;stroke-miterlimit:4;stroke-dasharray:4.36033333, 2.18016666;stroke-dashoffset:0;stroke-opacity:1;paint-order:normal" />
      <rect
         ry="0.39120248"
         y="-101.10791"
         x="-1193.2001"
         height="4.1234913"
         width="5.9209099"
         id="rect1479"
         style="opacity:1;fill:#94d0f2;fill-opacity:1;stroke:none;stroke-width:0.54504168;stroke-linecap:round;stroke-linejoin:round;stroke-miterlimit:4;stroke-dasharray:4.36033339, 2.18016669;stroke-dashoffset:0;stroke-opacity:1;paint-order:normal" />
      <path
         sodipodi:nodetypes="ccssssc"
         inkscape:connector-curvature="0"
         id="rect1510"
         d="m -1193.2,-99.688293 v 0.914673 h 0.987 c 0.1857,0 0.3354,-0.149715 0.3354,-0.335381 v -0.24443 c 0,-0.185663 -0.1497,-0.334862 -0.3354,-0.334862 z"
         style="opacity:1;fill:#7fbee1;fill-opacity:1;stroke:none;stroke-width:0.16871119;stroke-linecap:round;stroke-linejoin:round;stroke-miterlimit:4;stroke-dasharray:1.34968948, 0.67484474;stroke-dashoffset:0;stroke-opacity:1;paint-order:normal" />
      <path
         inkscape:connector-curvature="0"
         id="path1592"
         d="m -1192.2864,-100.62789 5e-4,0.0408 -0.016,-0.0367 -0.1287,0.0527 0.031,0.0739 0.1189,-0.0506 h 0.2326 v -0.0801 z m 0.477,0 v 0.0801 h 0.2387 v -0.0801 z m 0.477,0 v 0.0801 h 0.2382 v -0.0801 z m 0.4744,0 v 0.0801 h 0.2382 v -0.0801 z m 0.4764,0 v 0.0801 h 0.2383 v -0.0801 z m 0.4765,0 v 0.0801 h 0.2387 v -0.0801 z m 0.4769,0 v 0.0801 h 0.2383 v -0.0801 z m 0.4765,0 v 0.0801 h 0.2382 v -0.0801 z m 0.4765,0 v 0.0801 h 0.2382 v -0.0801 z m 0.4764,0 v 0.0801 h 0.2367 v -0.0801 z m 0.4749,0 v 0.0801 h 0.1669 v -0.0801 z m -5.0684,0.24443 -0.041,0.0915 v 0.0155 0.13901 h 0.08 v -0.13281 l 0.035,-0.0822 z m -0.045,0.484206 v 0.238228 h 0.08 v -0.238228 z m 0,0.476456 v 0.238228 h 0.08 v -0.238228 z m 0,0.47439 v 0.238744 h 0.08 v -0.238744 z m 0,0.476973 v 0.238228 h 0.08 v -0.238228 z m -0.01,0.476456 0.01,0.179835 v 0.01344 l 0.021,0.05478 0.074,-0.02946 -0.02,-0.04496 v -0.173633 z m 0.2067,0.38499 -0.032,0.0739 0.1658,0.06821 0.016,0.0021 h 0.059 v -0.07803 h -0.047 z m 0.447,0.06615 v 0.07803 h 0.2382 v -0.07803 z m 0.4764,0 v 0.07803 h 0.2383 v -0.07803 z m 0.4765,0 v 0.07803 h 0.2382 v -0.07803 z m 0.4744,0 v 0.07803 h 0.2387 v -0.07803 z m 0.4769,0 v 0.07803 h 0.2383 v -0.07803 z m 0.4765,0 v 0.07803 h 0.2382 v -0.07803 z m 0.4765,0 v 0.07803 h 0.2382 v -0.07803 z m 0.4764,0 v 0.07803 h 0.2388 v -0.07803 z m 0.4765,0 v 0.07803 h 0.2387 v -0.07803 z m 0.4749,0 v 0.07803 h 0.2382 v -0.07803 z"
         style="color:#000000;font-style:normal;font-variant:normal;font-weight:normal;font-stretch:normal;font-size:medium;line-height:normal;font-family:sans-serif;font-variant-ligatures:normal;font-variant-position:normal;font-variant-caps:normal;font-variant-numeric:normal;font-variant-alternates:normal;font-feature-settings:normal;text-indent:0;text-align:start;text-decoration:none;text-decoration-line:none;text-decoration-style:solid;text-decoration-color:#000000;letter-spacing:normal;word-spacing:normal;text-transform:none;writing-mode:lr-tb;direction:ltr;text-orientation:mixed;dominant-baseline:auto;baseline-shift:baseline;text-anchor:start;white-space:normal;shape-padding:0;clip-rule:nonzero;display:inline;overflow:visible;visibility:visible;opacity:1;isolation:auto;mix-blend-mode:normal;color-interpolation:sRGB;color-interpolation-filters:linearRGB;solid-color:#000000;solid-opacity:1;vector-effect:none;fill:#ffffff;fill-opacity:1;fill-rule:nonzero;stroke:none;stroke-width:0.07937499;stroke-linecap:round;stroke-linejoin:round;stroke-miterlimit:4;stroke-dasharray:0.23812499, 0.23812499;stroke-dashoffset:0;stroke-opacity:1;paint-order:normal;color-rendering:auto;image-rendering:auto;shape-rendering:auto;text-rendering:auto;enable-background:accumulate" />
      <rect
         ry="0.33513597"
         y="-99.503448"
         x="-1193.6138"
         height="0.91457379"
         width="1.5852611"
         id="rect1483"
         style="opacity:1;fill:#6499a8;fill-opacity:1;stroke:none;stroke-width:0.16871119;stroke-linecap:round;stroke-linejoin:round;stroke-miterlimit:4;stroke-dasharray:1.3496895, 0.67484475;stroke-dashoffset:0;stroke-opacity:1;paint-order:normal" />
      <circle
         r="0.28453404"
         cy="-99.046165"
         cx="-1192.5427"
         id="path1487"
         style="opacity:1;fill:#ffffff;fill-opacity:1;stroke:none;stroke-width:0.08889999;stroke-linecap:round;stroke-linejoin:round;stroke-miterlimit:4;stroke-dasharray:0.26669998, 0.26669998;stroke-dashoffset:0;stroke-opacity:1;paint-order:normal" />
      <path
         id="path1608"
         d="m -1189.7323,-99.214828 -0.3082,-0.09016 c -0.036,-0.01027 -0.06,-0.04365 -0.06,-0.08074 0,-0.04651 0.038,-0.08417 0.084,-0.08417 h 0.1892 c 0.035,0 0.069,0.01056 0.098,0.02996 0.017,0.0117 0.041,0.0088 0.056,-0.0057 l 0.099,-0.09701 c 0.02,-0.01969 0.017,-0.0525 -0.01,-0.0699 -0.07,-0.05478 -0.1572,-0.08531 -0.2468,-0.08559 v -0.136949 c 0,-0.02511 -0.02,-0.04565 -0.046,-0.04565 h -0.091 c -0.025,0 -0.046,0.02054 -0.046,0.04565 v 0.136949 h -0.01 c -0.1817,0 -0.3278,0.156063 -0.311,0.341229 0.012,0.131527 0.1124,0.238518 0.2391,0.275608 l 0.2925,0.08559 c 0.036,0.01056 0.06,0.04365 0.06,0.08074 0,0.04651 -0.038,0.08417 -0.084,0.08417 h -0.1892 c -0.035,0 -0.069,-0.01056 -0.098,-0.02996 -0.017,-0.0117 -0.041,-0.0088 -0.056,0.0057 l -0.099,0.097 c -0.02,0.01969 -0.017,0.0525 0.01,0.0699 0.07,0.05478 0.1572,0.08531 0.2468,0.08559 v 0.136949 c 0,0.02511 0.02,0.04565 0.046,0.04565 h 0.091 c 0.025,0 0.046,-0.02054 0.046,-0.04565 v -0.137519 c 0.133,-0.0026 0.2577,-0.0816 0.3016,-0.20742 0.061,-0.17575 -0.042,-0.356065 -0.2069,-0.404282 z"
         inkscape:connector-curvature="0"
         style="fill:#7fbee1;fill-opacity:1;stroke-width:0.00285309" />
      <path
         style="fill:#ffffff;stroke-width:0.00285309"
         inkscape:connector-curvature="0"
         d="m -1189.8185,-99.110638 -0.3082,-0.09016 c -0.036,-0.01027 -0.06,-0.04365 -0.06,-0.08074 0,-0.04651 0.038,-0.08417 0.084,-0.08417 h 0.1892 c 0.035,0 0.069,0.01056 0.098,0.02996 0.017,0.0117 0.041,0.0088 0.056,-0.0057 l 0.099,-0.09701 c 0.02,-0.01969 0.017,-0.0525 -0.01,-0.0699 -0.07,-0.05478 -0.1572,-0.08531 -0.2468,-0.08559 v -0.136949 c 0,-0.02511 -0.02,-0.04565 -0.046,-0.04565 h -0.091 c -0.025,0 -0.046,0.02054 -0.046,0.04565 v 0.136949 h -0.01 c -0.1817,0 -0.3278,0.156063 -0.311,0.341229 0.012,0.131527 0.1124,0.238518 0.2391,0.275608 l 0.2925,0.08559 c 0.036,0.01056 0.06,0.04365 0.06,0.08074 0,0.04651 -0.038,0.08417 -0.084,0.08417 h -0.1892 c -0.035,0 -0.069,-0.01056 -0.098,-0.02996 -0.017,-0.0117 -0.041,-0.0088 -0.056,0.0057 l -0.099,0.097 c -0.02,0.01969 -0.017,0.0525 0.01,0.0699 0.07,0.05478 0.1572,0.08531 0.2468,0.08559 v 0.136949 c 0,0.02511 0.02,0.04565 0.046,0.04565 h 0.091 c 0.025,0 0.046,-0.02054 0.046,-0.04565 v -0.137519 c 0.133,-0.0026 0.2577,-0.0816 0.3016,-0.20742 0.061,-0.17575 -0.042,-0.356065 -0.2069,-0.404282 z"
         id="path1597" />
    </g>
  </g>
</svg>
